<svg width="41" height="32" viewBox="0 0 41 32" fill="none" xmlns="http://www.w3.org/2000/svg">
<path d="M20.8999 11.9941C20.1319 11.9941 19.3811 12.222 18.7427 12.6489C18.1042 13.0757 17.6068 13.6824 17.3133 14.392C17.0197 15.1017 16.9433 15.8825 17.0937 16.6356C17.2441 17.3887 17.6145 18.0803 18.1581 18.6228C18.7018 19.1654 19.394 19.5344 20.1475 19.6832C20.9009 19.8321 21.6816 19.7542 22.3907 19.4591C23.0998 19.1642 23.7054 18.6655 24.1309 18.0262C24.5565 17.3869 24.7827 16.6357 24.7812 15.8676C24.7791 14.8396 24.3693 13.8544 23.6416 13.1282C22.914 12.402 21.9279 11.9941 20.8999 11.9941Z" fill="#F4F6F8"/>
<path d="M8.76172 15.8677C8.76172 15.1 8.5341 14.3496 8.10763 13.7113C7.68107 13.073 7.0749 12.5756 6.36573 12.2818C5.65648 11.988 4.87605 11.9111 4.12312 12.0609C3.37026 12.2107 2.67869 12.5804 2.13585 13.1231C1.59302 13.666 1.22334 14.3575 1.07359 15.1105C0.923832 15.8634 1.00068 16.6438 1.29445 17.353C1.58822 18.0623 2.08572 18.6684 2.72402 19.0949C3.36232 19.5214 4.11274 19.749 4.88037 19.749C5.90979 19.749 6.89702 19.3401 7.62489 18.6122C8.35276 17.8843 8.76172 16.8971 8.76172 15.8677Z" fill="#F4F6F8"/>
<path d="M24.7812 27.7818C24.7812 27.014 24.5536 26.2636 24.1271 25.6254C23.7006 24.9871 23.0944 24.4896 22.3852 24.1958C21.676 23.9021 20.8956 23.8252 20.1426 23.975C19.3898 24.1247 18.6981 24.4944 18.1554 25.0372C17.6125 25.58 17.2429 26.2716 17.0931 27.0245C16.9434 27.7774 17.0202 28.5579 17.314 29.267C17.6078 29.9763 18.1053 30.5825 18.7436 31.0089C19.3818 31.4354 20.1322 31.6631 20.8999 31.6631C21.9292 31.6631 22.9166 31.2541 23.6444 30.5263C24.3723 29.7983 24.7812 28.8111 24.7812 27.7818Z" fill="#F4F6F8"/>
<path d="M33.2373 15.8676C33.2357 16.6357 33.4621 17.3869 33.8876 18.0262C34.3132 18.6655 34.9188 19.1642 35.6279 19.4591C36.337 19.7542 37.1176 19.8321 37.871 19.6832C38.6244 19.5344 39.3168 19.1654 39.8604 18.6228C40.404 18.0803 40.7744 17.3887 40.9248 16.6356C41.0753 15.8825 40.9988 15.1017 40.7053 14.392C40.4118 13.6824 39.9143 13.0757 39.2759 12.6489C38.6374 12.222 37.8867 11.9941 37.1187 11.9941C36.0907 11.9941 35.1046 12.402 34.3769 13.1282C33.6493 13.8544 33.2394 14.8396 33.2373 15.8676Z" fill="#F4F6F8"/>
<path d="M21.3452 7.76263C22.1129 7.76263 22.8633 7.53501 23.5016 7.10854C24.1398 6.68206 24.6373 6.0759 24.9311 5.36665C25.2249 4.6574 25.3017 3.87704 25.152 3.12411C25.0022 2.37118 24.6326 1.6796 24.0897 1.13677C23.547 0.594006 22.8554 0.224334 22.1025 0.07458C21.3495 -0.075174 20.5691 0.00166811 19.8599 0.29544C19.1507 0.589213 18.5445 1.08672 18.118 1.72494C17.6915 2.36324 17.4639 3.11366 17.4639 3.88129C17.4639 4.91071 17.8728 5.89793 18.6007 6.62588C19.3286 7.35375 20.3159 7.76263 21.3452 7.76263Z" fill="#F4F6F8"/>
<path d="M15.6091 24.6977C17.0061 23.3092 18.8958 22.5299 20.8654 22.5299C22.8351 22.5299 24.7248 23.3092 26.1217 24.6977C26.6652 25.239 27.3568 25.6071 28.1092 25.7557C28.8618 25.9042 29.6414 25.8264 30.3497 25.5322C31.058 25.238 31.6633 24.7405 32.0891 24.1025C32.515 23.4646 32.7422 22.7148 32.7422 21.9477C32.7422 21.1807 32.515 20.4309 32.0891 19.793C31.6633 19.155 31.058 18.6575 30.3497 18.3634C29.6414 18.0691 28.8618 17.9913 28.1092 18.1398C27.3568 18.2884 26.6652 18.6565 26.1217 19.1978C25.4307 19.8953 24.6083 20.4489 23.702 20.8268C22.7958 21.2045 21.8237 21.3991 20.8419 21.3991C19.86 21.3991 18.8879 21.2045 17.9817 20.8268C17.0755 20.4489 16.2531 19.8953 15.562 19.1978C15.0186 18.6565 14.3269 18.2884 13.5745 18.1398C12.8219 17.9913 12.0424 18.0691 11.334 18.3634C10.6257 18.6575 10.0204 19.155 9.59459 19.793C9.16875 20.4309 8.94152 21.1807 8.94152 21.9477C8.94152 22.7148 9.16875 23.4646 9.59459 24.1025C10.0204 24.7405 10.6257 25.238 11.334 25.5322C12.0424 25.8264 12.8219 25.9042 13.5745 25.7557C14.3269 25.6071 15.0186 25.239 15.562 24.6977L15.6091 24.6977Z" fill="#F4F6F8"/>
<path d="M13.3476 13.5282C14.3666 13.524 15.3443 13.124 16.074 12.4125C17.4709 11.024 19.3606 10.2447 21.3303 10.2447C23.2999 10.2447 25.1895 11.024 26.5866 12.4125C27.13 12.9539 27.8216 13.322 28.5741 13.4705C29.3266 13.619 30.1062 13.5413 30.8145 13.247C31.5229 12.9528 32.1281 12.4553 32.554 11.8174C32.9797 11.1794 33.207 10.4296 33.207 9.66258C33.207 8.89558 32.9797 8.14579 32.554 7.5078C32.1281 6.86989 31.5229 6.37239 30.8145 6.07814C30.1062 5.78398 29.3266 5.70619 28.5741 5.85469C27.8216 6.00327 27.13 6.37137 26.5866 6.91263C25.8956 7.60892 25.0737 8.16158 24.1682 8.53871C23.2627 8.91585 22.2915 9.10999 21.3106 9.10999C20.3297 9.10999 19.3585 8.91585 18.453 8.53871C17.5474 8.16158 16.7255 7.60892 16.0347 6.91263C15.5809 6.46581 15.024 6.13746 14.4133 5.95667C13.8027 5.77588 13.1569 5.74807 12.5329 5.87582C11.909 6.00358 11.3261 6.2829 10.8356 6.68918C10.345 7.09546 9.9621 7.61614 9.72041 8.20542C9.47873 8.79469 9.3857 9.43433 9.44966 10.068C9.51361 10.7017 9.73251 11.3099 10.0871 11.839C10.4416 12.368 10.9209 12.8018 11.4827 13.1018C12.0444 13.4019 12.6714 13.5592 13.3083 13.5596L13.3476 13.5282Z" fill="#F4F6F8"/>
</svg>
