<svg width="24" height="13" viewBox="0 0 24 13" fill="none" xmlns="http://www.w3.org/2000/svg">
<path fill-rule="evenodd" clip-rule="evenodd" d="M21.3377 5.15827C19.0433 1.0532 16.6716 -2.81438 13.9471 2.859C13.8382 3.07209 13.738 3.34391 13.6354 3.62196C13.3869 4.2956 13.125 5.00578 12.6942 5.00578V4.99858C12.2635 4.99858 12.0016 4.28845 11.7531 3.61484C11.6506 3.33676 11.5503 3.06491 11.4414 2.8518C8.71686 -2.82158 6.34514 1.046 4.05072 5.15106L3.88642 5.44525L3.88637 5.44536C3.77356 5.6472 3.66641 5.83892 3.57025 6.01289L3.58768 6.00164L0 12.3243C1.44454 13.2184 3.31516 13.1846 4.81992 12.4614C5.53568 12.1653 6.11767 11.652 6.65115 10.974C6.93407 10.6146 7.51316 9.61999 8.3885 7.99013C8.55291 8.30976 8.71374 8.6413 8.87542 8.9746C9.82206 10.9261 10.798 12.9379 12.6942 12.9739V12.9811C14.5905 12.9451 15.5664 10.9332 16.5131 8.98175C17.7174 6.49911 18.8742 4.11427 21.8182 6.02C21.7195 5.84133 21.6091 5.64389 21.4929 5.43597L21.4922 5.43481L21.3377 5.15827ZM24 10.5471C24 11.8913 22.9343 12.9811 21.6198 12.9811C20.3053 12.9811 19.2397 11.8913 19.2397 10.5471C19.2397 9.20295 20.3053 8.11319 21.6198 8.11319C22.9343 8.11319 24 9.20295 24 10.5471Z" fill="white"/>
</svg>
