<svg xmlns="http://www.w3.org/2000/svg" xmlns:xlink="http://www.w3.org/1999/xlink" width="217" height="160" fill="none" xmlns:v="https://vecta.io/nano"><style><![CDATA[.B{opacity:.1}.C{fill:#00ab55}.D{fill:#fff}.E{opacity:.5}.F{opacity:.3}.G{fill-rule:evenodd}.H{fill:#ff4842}.I{stroke:#005249}.J{stroke-width:.5}.K{stroke-linecap:round}]]></style><path d="M0 88.347c0 18.425 6.75 35.215 17.856 47.905C30.598 150.814 49.076 159.969 69.672 160a67.99 67.99 0 0 0 25.514-4.905c4.088-1.644 8.663-1.455 12.622.492a34.68 34.68 0 0 0 15.336 3.56c2.268 0 4.489-.219 6.638-.637 6.134-1.187 11.715-3.995 16.299-7.973 2.88-2.501 6.57-3.758 10.341-3.754h.064c12.459 0 24.033-3.881 33.641-10.531 8.591-5.938 15.605-14.087 20.279-23.656 4.075-8.338 6.369-17.757 6.369-27.726 0-34.191-26.995-61.913-60.289-61.913-3.395 0-6.72.294-9.964.844C137.931 9.52 122.548 0 104.999 0a47.43 47.43 0 0 0-20.72 4.738c-5.979 2.883-11.295 6.98-15.644 11.973-14.766.242-28.42 5.196-39.595 13.463C11.449 43.18 0 64.392 0 88.347z" fill="url(#A)" opacity=".2" class="G"/><g class="H"><path opacity=".05" d="M132.326 91.641c-1.016 1.188-2.112 1.168-2.765 1.001l.024-.615s2.7-1.215 2.631-.959c-.025.096.026.325.11.574zm7.4 1.344c-1.724.981-2.735-.169-2.97-.494.144-.373.362-.979.317-1.152-.065-.257 2.632.958 2.632.958l.021.688zm-1.847-9.783s1.64-.93 1.998-.512-1.998.512-1.998.512zm.991.511s-.27.133.325.303-.325-.303-.325-.303zm-9.921-2.558c-.056.016 1.365.943 2.648.175-.006 0-2.328-.271-2.648-.175zm2.578 1.775s-.389.752-1.186.864 1.186-.864 1.186-.864zm5.215 1.631s1.869 2.923 1.511 3.613-1.511-3.613-1.511-3.613zm-3.688 11.625l-.016.442c-.049.591-1.527.368-1.527.368-1.35.185-1.837-.453-1.997-1.063a2.34 2.34 0 0 1-.074-.606c-.001-.122.007-.243.024-.364v-.121c.291-.086.606-.023.84.169.6.48 1.397.112 1.397.112s.585.048.81.239c.127.108.336-.151.496-.399l.033.756.014.466z"/><path opacity=".05" d="M130.683 96.151s-.405.391-1.169-.213a2.38 2.38 0 0 1-.075-.606c.391.292 1.114.819 1.244.819zm2.371.034a.31.31 0 0 1-.235.059c-.083-.013-.157-.059-.204-.128a2.81 2.81 0 0 0 .432-.399l.007.468zm3.169.274l.015.442c.048.593 1.527.368 1.527.368 1.35.186 1.836-.452 1.997-1.063.079-.317.096-.647.05-.97v-.121c-.292-.085-.607-.022-.841.169-.601.48-1.396.112-1.396.112s-.585.049-.811.24c-.127.108-.336-.151-.494-.399l-.035.756-.012.465z"/><path opacity=".05" d="M138.594 96.421s.405.391 1.168-.213a2.37 2.37 0 0 0 .075-.605c-.391.291-1.115.817-1.243.817zm-2.371.037a.31.31 0 0 0 .234.059.3.3 0 0 0 .203-.128 2.89 2.89 0 0 1-.432-.399l-.005.468zm8.119-49.227l.081-.182c.026-.06.035-.093.05-.141a2.91 2.91 0 0 0-.131.323z"/></g><path d="M71.171 124.205c-.327-.388-.477-.891-.414-1.391l5.96-47.991.494-3.986a1.86 1.86 0 0 1 1.842-1.616l17.457-.114a1.88 1.88 0 0 0 1.331-.56 1.82 1.82 0 0 0 .524-1.328l-.007-.182c-.017-.498.172-.982.524-1.34s.837-.561 1.343-.561h18.344c1.03 0 1.865.82 1.867 1.834 0 .083-.005.165-.016.247a1.82 1.82 0 0 0 .43 1.437 1.88 1.88 0 0 0 1.374.644l17.617.442a1.88 1.88 0 0 1 1.396.67c.344.412.489.951.397 1.477l-8.807 50.626-.166.957c-.041.244-.133.478-.27.686l-61.219.05z" fill="#005249" class="G"/><path d="M124.336 54.967l8.487 5.77-19.901 28.349-8.487-5.77z" class="D"/><g fill="#ffc107"><path d="M124.947 56.311l5.98 4.091-4.157 5.885-5.98-4.091z"/><path d="M120.264 63.402l6 4.079-4.145 5.905-6-4.079z" class="E"/><path d="M115.258 70.531l6 4.079-4.145 5.905-6-4.079z" class="F"/></g><path d="M112.346 53.191l9.901 2.848-9.784 32.948-9.901-2.848z" class="D"/><g class="H"><path d="M113.645 54.143l7 2.013-2.046 6.889-7-2.013z"/><path d="M111.176 62.459l7 2.013-2.046 6.889-7-2.013z" class="E"/><path d="M108.705 70.773l7 2.013-2.046 6.889-7-2.013z" class="F"/></g><path d="M105.33 53.711l10.282.814-2.797 34.215-10.282-.814z" class="D"/><g fill="#1890ff"><path d="M106.795 54.385l7.269.576-.585 7.154-7.269-.576z"/><path d="M106.088 63.018l7.269.576-.585 7.154-7.269-.576z" class="E"/><path d="M105.383 71.656l7.269.576-.585 7.154-7.269-.576z" class="F"/></g><path d="M100.705 55.086l10.305-.462 1.588 34.29-10.305.462z" class="D"/><g class="C"><path d="M102.242 55.572l7.285-.327.332 7.169-7.285.327z"/><path d="M102.928 63.953l7.292-.359.365 7.177-7.292.359z" class="E"/><path d="M103.043 72.883l7.285-.327.332 7.169-7.285.327z" class="F"/></g><path d="M105.081 100.322l-9.165 3.49-13.395 5.096-2.174-3.688c-3.173-5.174-8.423-13.222-13.097-20.295l-9.798-14.7 3.281-.93 26.801-7.658 17.547 38.685z" fill="#f4f6f8"/><path d="M105.082 100.322l-9.165 3.49c-5.12 1.049-10.345 1.522-15.573 1.408-3.173-5.174-8.422-13.222-13.097-20.295l-6.512-15.636 26.8-7.652 17.548 38.685z" fill="#000" class="B"/><path d="M111.899 98.152s-14.238 8.289-35.496 6.414l-16.946-40.66 8.122-1.374 28.076-4.745 15.933 39.575.312.791z" class="C"/><path d="M111.583 97.366c-3.353.162-7.232.146-11.134-.312-4.223-.489-8.471-1.496-12.112-3.343-3.045-1.543-5.648-3.221-7.918-5.234-5.904-5.226-9.558-12.702-12.839-25.94l28.076-4.745 15.927 39.575z" class="B H"/><path d="M122.027 95.093s-10.495 2.022-21.178.777c-4.223-.489-8.471-1.496-12.112-3.343-3.045-1.543-5.647-3.221-7.918-5.234-7.307-6.47-11.166-16.385-15.145-36.408 0 0 17.447 4.144 34.7-4.934-.006.007 5.81 35.721 21.653 49.142z" class="D"/><g class="C"><path d="M74.699 58.236s14.188-.789 18.149-3.799l.601 1.9s-9.374 4.07-18.75 4.119v-2.22zm0 9.381s13.737-.74 24.116-5.674l.351.789s-8.236 4.732-24.467 5.97v-1.086zm1.106 3.655s13.737-.74 24.115-5.674l.351.789s-8.236 4.73-24.465 5.97v-1.086zm1.103 3.662s13.737-.74 24.116-5.674l.35.789s-8.236 4.732-24.466 5.97v-1.086zm1.108 3.66s13.737-.74 24.114-5.674l.351.789s-8.236 4.732-24.465 5.97v-1.086zm1.103 3.662s13.737-.74 24.116-5.674l.35.789s-8.236 4.73-24.466 5.97v-1.086z" class="F"/><path d="M175.708 127.708s-5.708-.338-5.036 3.599c0 0-.135.695.508 1.011 0 0 .009-.292.585-.193a2.69 2.69 0 0 0 .621.03 1.29 1.29 0 0 0 .757-.309s1.605-.652 2.229-3.233c0 0 .462-.563.443-.708l-.963.399s.33.684.071 1.251c0 0-.031-1.226-.216-1.195-.038 0-.501.236-.501.236s.565 1.196.135 2.057c0 0 .162-1.468-.316-1.971l-.675.39s.661 1.23.213 2.235c0 0 .115-1.54-.356-2.141l-.615.472s.623 1.213.243 2.046c0 0-.05-1.794-.376-1.929 0 0-.541.466-.619.664 0 0 .425.88.161 1.345 0 0-.162-1.196-.295-1.196 0 0-.54.797-.591 1.329 0 0 .023-.808.462-1.41-.309.058-.595.203-.821.418 0 0 .084-.56.953-.608 0 0 .443-.601.561-.638 0 0-.865-.07-1.388.158 0 0 .461-.531 1.547-.288l.606-.486s-1.138-.155-1.62.016c0 0 .555-.468 1.783-.133l.661-.388s-.97-.206-1.548-.133c0 0 .609-.324 1.742.026l.471-.208-.918-.16c-.208-.026-.22-.077-.22-.077.45-.075.913-.024 1.335.146 0 0 1.004-.361.987-.424z"/><ellipse cx="171.776" cy="132.661" rx="4.04" ry=".672" class="B"/><path d="M178.367 114.711s-3.218-.191-2.835 2.029c-.041.231.074.461.284.57 0 0 .007-.165.331-.109a1.52 1.52 0 0 0 .35.016c.158-.01.307-.07.427-.173 0 0 .904-.368 1.257-1.823 0 0 .26-.317.249-.398l-.54.227s.185.387.039.707c0 0-.017-.692-.121-.676-.022 0-.282.132-.282.132s.318.665.078 1.16c0 0 .092-.827-.178-1.112l-.382.221s.372.693.12 1.26c0 0 .065-.869-.201-1.207l-.346.266s.35.684.135 1.153c0 0-.028-1.011-.212-1.087-.131.11-.248.234-.35.371 0 0 .241.497.092.759 0 0-.092-.674-.166-.677 0 0-.302.445-.333.751a1.6 1.6 0 0 1 .26-.797.91.91 0 0 0-.463.236s.047-.316.54-.342c0 0 .25-.339.316-.361 0 0-.487-.039-.783.089 0 0 .261-.297.872-.162l.343-.275s-.642-.086-.914.01c0 0 .313-.266 1.006-.072l.373-.219c-.287-.062-.581-.087-.874-.074 0 0 .344-.183.982.015l.27-.117-.519-.09c-.113-.012-.124-.044-.124-.044a1.41 1.41 0 0 1 .753.082s.557-.204.546-.239z"/><ellipse cx="176.153" cy="117.504" rx="2.278" ry=".379" class="B"/><path d="M159.373 116.638s-3.886-.231-3.427 2.449a.65.65 0 0 0 .344.688s0-.199.405-.133c.14.023.282.03.423.02.191-.012.372-.086.516-.21 0 0 1.092-.444 1.517-2.2 0 0 .315-.383.301-.483l-.663.277s.225.465.048.851c0 0-.022-.834-.148-.815-.025 0-.34.162-.34.162s.385.81.095 1.4c0 0 .11-.999-.215-1.342l-.462.266s.45.838.145 1.521c0 0 .078-1.048-.242-1.461l-.418.321s.423.825.164 1.393c0 0-.032-1.221-.255-1.313 0 0-.366.318-.421.448 0 0 .289.599.109.915 0 0-.111-.813-.201-.817 0 0-.363.54-.405.908a1.94 1.94 0 0 1 .315-.96 1.1 1.1 0 0 0-.558.286s.057-.381.648-.415c0 0 .301-.409.382-.433 0 0-.589-.049-.945.107 0 0 .313-.359 1.052-.196l.413-.332s-.774-.104-1.103.011c0 0 .378-.318 1.215-.085l.45-.266s-.661-.14-1.055-.089c0 0 .416-.221 1.186.018l.321-.142-.625-.107c-.142-.015-.149-.053-.149-.053a1.68 1.68 0 0 1 .909.098s.686-.246.674-.287z"/><ellipse cx="156.696" cy="120.01" rx="2.75" ry=".457" class="B"/></g><rect width="22.713" height="41.176" rx="4.737" transform="matrix(.313683 -.949528 .952437 .304734 125.607 55.5605)" class="D"/><g class="C"><ellipse cx="137.115" cy="46.003" rx="4.234" ry="4.167" opacity=".2"/><path d="M147.246 45.252l.359-1.085 17.544 5.613-.359 1.085zm-.914 2.768l.359-1.085 8.937 2.859-.359 1.085zm-.916 2.769l.359-1.085 14.454 4.625-.359 1.085zm-.914 2.768l.359-1.085 17.544 5.613-.359 1.085z" opacity=".2"/><path d="M155.535 62.629l.693-2.099 4.855 1.553-.693 2.099z" class="E"/></g><rect width="22.462" height="35.2" rx="4" transform="matrix(.546886 -.837207 .845079 .534642 122.01 94.9434)" class="D"/><g fill="#dfe3e8"><path d="M126.418 93.631l3.447-5.339 1.276.798-3.447 5.339z"/><use xlink:href="#C"/><use xlink:href="#C" x="2.5" y="1.562"/><use xlink:href="#C" x="5" y="3.127"/><path d="M138.084 100.105l7.622-11.668 1.165.737-7.622 11.668z"/></g><g fill="#f4f6f8"><use xlink:href="#C" x="10" y="6.252"/><use xlink:href="#C" x="12.5" y="7.814"/></g><path fill="#dfe3e8" d="M153.494 95.867l1.96-3.036 3.085 1.929-1.96 3.036z"/><path d="M121.609 75.004l-20.669.219c-.774.008-1.397.627-1.397 1.389v1.681c0 .754-.611 1.37-1.377 1.389l-14.914.352c-.65.016-1.228-.408-1.397-1.026l-.701-2.534c-.168-.611-.735-1.033-1.379-1.026l-19.922.211a1.42 1.42 0 0 0-1.069.498c-.265.312-.378.722-.309 1.123l8.015 46.422c.115.666.7 1.155 1.387 1.157l62.939.266c.421.001.822-.183 1.091-.502s.38-.741.301-1.148l-9.198-47.343c-.128-.66-.718-1.135-1.4-1.128z" fill="url(#B)"/><g class="C"><ellipse cx="54.009" cy="114.962" rx="2.189" ry=".296" class="B"/><ellipse cx="45.626" cy="115.798" rx="2.189" ry=".296" class="B"/><ellipse cx="48.981" cy="118.181" rx="1.555" ry=".21" class="B"/><ellipse cx="40.28" cy="117.97" rx="1.555" ry=".21" class="B"/><path d="M45.579 115.733s3.069-9.902-.481-13.868c-2.656-2.967-5.671-2.613-7.021-2.246-.706.186-1.295.667-1.609 1.317-.473 1.002-.388 2.628 2.945 4.527 5.578 3.178 5.925 7.538 5.925 7.538l.242 2.732z"/></g><g class="I J K"><path d="M38.561 101.023s9.046 2.791 7.021 14.71"/><path d="M43.843 102.021s-1.246.827-.849 2.069m-3.527-1.333s.761-.762 1.689-.341m1.887 4.177s1.338-.665 1.684.169m1.625 1.221s-1.005-.078-1.022.399"/></g><path d="M45.703 115.811s-3.596-7.197-4.583-7.043c-.469.076-.684.532-.783.986a2.85 2.85 0 0 0 .196 1.751c.51 1.156 1.881 3.342 5.17 4.306z" class="C"/><g class="I J K"><path d="M41.148 110.137s3.773 5.384 4.502 5.62"/><path d="M40.801 110.979h.88m.175 1.968l1.381.059m-.54-1.635l-.15.708m1.618 1.446l-.027.644"/></g><path d="M45.598 115.811s3.594-7.197 4.581-7.043c.47.076.686.532.783.986a2.85 2.85 0 0 1-.196 1.751c-.51 1.156-1.882 3.342-5.168 4.306z" class="C"/><g class="I J K"><path d="M50.151 110.137s-3.78 5.384-4.503 5.62"/><path d="M50.5 110.979h-.88m-.176 1.968l-1.381.059m.541-1.635l.15.708m-1.618 1.446l.027.644"/></g><g class="C"><path d="M39.423 117.491c-.098-.078-.169-.184-.204-.304s.026-.254.143-.31c.135-.049.27.04.378.133s.231.192.366.169c-.146-.13-.211-.326-.173-.515.006-.039.022-.075.047-.105.073-.078.205-.044.293.017.27.191.355.562.357.897a1.76 1.76 0 0 0 0-.37c-.007-.125.049-.246.151-.323a.43.43 0 0 1 .215-.05.45.45 0 0 1 .35.098c.095.127.089.301-.014.421a1.36 1.36 0 0 1-.362.285.81.81 0 0 0-.258.243c-.008.013-.014.028-.019.043h-.786a2.19 2.19 0 0 1-.485-.329zm13.699-2.898c-.098-.078-.169-.184-.204-.303s.025-.254.142-.31c.135-.049.27.04.378.133s.23.194.369.174c-.146-.129-.212-.324-.174-.514.006-.039.023-.075.049-.105.073-.077.205-.044.293.016.277.193.355.563.356.898.014-.123.014-.247 0-.371a.37.37 0 0 1 .135-.326c.066-.035.14-.052.215-.05a.46.46 0 0 1 .35.097c.095.128.089.302-.015.423a1.34 1.34 0 0 1-.361.284.81.81 0 0 0-.258.242c-.008.014-.014.029-.019.044h-.768a2.16 2.16 0 0 1-.487-.332zm-4.565 2.899c-.098-.078-.169-.184-.205-.304s.026-.254.143-.309c.135-.05.27.039.378.132s.228.194.369.176a.55.55 0 0 1-.174-.516c.006-.038.023-.075.049-.105.073-.077.205-.044.293.018.277.191.354.562.356.897.014-.123.014-.247 0-.37s.043-.248.142-.327a.42.42 0 0 1 .215-.05.45.45 0 0 1 .35.098c.095.127.089.301-.015.421a1.37 1.37 0 0 1-.361.285.8.8 0 0 0-.258.243.2.2 0 0 0-.019.042h-.783a2.17 2.17 0 0 1-.479-.331z"/><ellipse cx="38.147" cy="38.667" rx="2.92" ry="2.874" class="B"/><ellipse cx="178.579" cy="61.636" rx="2.92" ry="2.874" class="B"/><ellipse cx="126.081" cy="29.54" rx="2.92" ry="2.874" class="B"/><ellipse cx="43.986" cy="54.524" rx="4.894" ry="4.817" class="B"/></g><g class="G"><path d="M93.045 93.293c-3.602 0-6.522 2.873-6.522 6.418s2.92 6.418 6.522 6.418 6.521-2.874 6.521-6.418-2.92-6.418-6.521-6.418h0z" fill="#007b55"/><path opacity=".72" d="M93.046 94.041c3.183 0 5.763 2.539 5.763 5.671s-2.58 5.672-5.763 5.672-5.763-2.539-5.763-5.672 2.581-5.669 5.763-5.671z" class="C"/><path d="M90.348 100.181l-.315-.303c-.068-.061-.107-.147-.107-.237a.32.32 0 0 1 .107-.237l2.767-2.66c.064-.066.153-.103.246-.103s.182.037.246.103l2.767 2.657c.067.062.105.147.105.237s-.038.175-.105.237l-.315.303a.35.35 0 0 1-.246.1.35.35 0 0 1-.246-.1l-1.636-1.657v3.931a.32.32 0 0 1-.099.232c-.064.062-.151.096-.241.096h-.456c-.189 0-.343-.147-.343-.328v-3.926l-1.636 1.656c-.065.064-.154.1-.247.1s-.182-.038-.246-.102z" fill="#007b55"/></g><defs><linearGradient id="A" x1="148.495" y1="188.459" x2="226.132" y2="10.656" gradientUnits="userSpaceOnUse"><stop stop-color="#00ab55"/><stop offset="1" stop-color="#00ab55" stop-opacity=".01"/></linearGradient><linearGradient id="B" x1="80.671" y1="60.995" x2="59.416" y2="124.768" gradientUnits="userSpaceOnUse"><stop stop-color="#00ab55"/><stop offset="1" stop-color="#007b55"/></linearGradient><path id="C" d="M130.498 94.713l7.569-11.725 1.17.732-7.569 11.725z"/></defs></svg>