<svg width="47" height="60" viewBox="0 0 47 60" fill="none" xmlns="http://www.w3.org/2000/svg">
<path fill-rule="evenodd" clip-rule="evenodd" d="M24.982 7.61288C25.2301 6.78957 25.477 5.96614 25.7275 5.14361C25.7521 5.06367 25.7616 4.96042 25.884 4.95618C25.895 4.95562 25.9089 4.93812 25.914 4.92552C25.9386 4.86118 25.9621 4.79629 25.9834 4.73117C26.0055 4.66338 26.0098 4.58344 26.0508 4.52981C26.0888 4.48086 26.0844 4.45432 26.0484 4.42288C26.0115 4.39043 25.9778 4.38564 25.927 4.42243C25.8424 4.48498 25.744 4.52947 25.6504 4.58043C25.5596 4.63016 25.4672 4.67866 25.3761 4.72883C25.3521 4.74232 25.3329 4.76908 25.3082 4.7741C25.1546 4.80856 25.0007 4.84256 24.8455 4.86754C24.7452 4.88371 24.6286 4.91704 24.5443 4.88214C24.4611 4.8478 24.4093 4.73686 24.3439 4.65915C24.3379 4.65212 24.3324 4.64387 24.3259 4.63785C24.1875 4.51029 24.1404 4.3475 24.1246 4.16409C24.1115 4.01434 24.0651 3.87084 23.9114 3.79636C23.8949 3.78845 23.8734 3.77819 23.8672 3.76369C23.8504 3.72366 23.8318 3.6804 23.8315 3.63859C23.8315 3.6251 23.8861 3.60737 23.9178 3.59923C23.9471 3.59131 23.9794 3.59131 24.0101 3.59288C24.0718 3.59522 24.0909 3.5679 24.1005 3.5068C24.1131 3.42663 24.1265 3.31613 24.1807 3.2809C24.2645 3.22615 24.2343 3.19549 24.1988 3.14521C24.1432 3.06548 24.2533 3.02947 24.2467 2.96279C24.2776 2.96012 24.3094 2.95488 24.3401 2.9561C24.4019 2.95922 24.4637 2.97416 24.5247 2.96837C24.5523 2.96547 24.577 2.92633 24.6031 2.90359C24.5815 2.88485 24.5624 2.85943 24.5377 2.8485C24.4755 2.82085 24.4098 2.80234 24.3477 2.7748C24.3216 2.76298 24.2887 2.74191 24.2804 2.71783C24.1869 2.44543 23.9643 2.35679 23.7113 2.31598C23.4581 2.27562 23.1841 2.54712 23.2154 2.80045C23.2289 2.91061 23.2152 2.91518 23.1022 2.90136C23.0569 2.89578 23.0047 2.92823 22.9593 2.95086C22.9325 2.96413 22.9127 2.99189 22.8871 3.0152C22.9196 3.05534 22.9414 3.09882 22.8589 3.1403C22.8378 3.15089 22.844 3.21645 22.8346 3.27722C22.8041 3.27198 22.7512 3.26663 22.6998 3.25537C22.5401 3.2208 22.3868 3.2111 22.261 3.34445C22.2422 3.36497 22.2176 3.37958 22.1943 3.3953C22.0884 3.46376 22.0391 3.56021 22.0202 3.68609C22.0021 3.80562 21.9577 3.92146 21.9236 4.0382C21.9207 4.04935 21.9083 4.05761 21.8993 4.06586C21.8192 4.14145 21.7304 4.19977 21.6642 4.30045C21.5776 4.43224 21.4321 4.52423 21.3133 4.6345C21.2994 4.6471 21.2906 4.66717 21.2842 4.68524C21.273 4.71601 21.273 4.75392 21.2551 4.77979C21.2031 4.85304 21.1446 4.92117 21.0889 4.99186C21.0133 5.08786 20.9737 5.19524 20.982 5.31956C20.9906 5.44633 20.9987 5.57333 20.9998 5.70011C21.0004 5.74983 20.9776 5.79945 20.9711 5.84963C20.9635 5.90995 20.9422 5.97874 20.9635 6.02836C20.9836 6.07497 21.0499 6.1286 21.0975 6.12994C21.165 6.13228 21.1521 6.05601 21.15 6.00483C21.1488 5.97506 21.1428 5.94518 21.1385 5.91374C21.2202 5.93057 21.2516 5.97473 21.2438 6.05757C21.2361 6.14019 21.2429 6.22471 21.2426 6.30811C21.2422 6.3662 21.2706 6.38304 21.3294 6.37256V6.03126C21.5625 6.08556 21.7831 6.13651 21.9991 6.18658C21.9991 6.25169 21.9992 6.30142 21.9991 6.35059C21.9989 6.48473 21.9984 6.62276 22.0882 6.73181C22.1565 6.81543 22.128 6.87453 22.0702 6.94121C21.134 8.01785 20.1983 9.09449 19.2624 10.1715C19.2872 10.1897 19.3115 10.2085 19.3356 10.2277C20.1259 9.32786 20.9165 8.42805 21.7073 7.52803C21.8085 7.41296 21.9105 7.29812 22.0197 7.17424C21.9991 7.40649 21.9884 7.62314 21.9582 7.83666C21.9378 7.9815 21.9113 8.13291 21.8485 8.26192C21.7897 8.38267 21.6742 8.47444 21.5931 8.58594C21.5007 8.71226 21.4117 8.8425 21.3347 8.97819C21.2712 9.09003 21.2344 9.21658 21.1728 9.32964C21.0957 9.4708 21.0074 9.60616 20.92 9.74129C20.8816 9.80084 20.8451 9.87922 20.7879 9.90509C20.6941 9.94712 20.6624 10.0261 20.6174 10.1003C20.5807 10.1602 20.5466 10.223 20.5185 10.2874C20.5068 10.3144 20.4996 10.3658 20.5145 10.379C20.6285 10.4779 20.7474 10.5795 20.9134 10.5587C20.9862 10.5493 21.0272 10.5813 21.0754 10.6247C21.117 10.6611 21.1695 10.7031 21.2208 10.7086C21.3528 10.7223 21.4866 10.722 21.6192 10.716C21.6552 10.7148 21.6897 10.6738 21.7249 10.6509C21.6907 10.6169 21.6602 10.5772 21.6214 10.5493C21.5739 10.5152 21.5143 10.4973 21.4695 10.4598C21.4299 10.4278 21.4034 10.3793 21.3706 10.3376C21.2349 10.1658 21.163 9.976 21.3507 9.79035C21.3726 9.76895 21.3904 9.74285 21.4093 9.71832C21.6709 9.38148 22.0051 9.10262 22.2066 8.71728C22.2154 8.70045 22.2432 8.69264 22.2632 8.68261C22.286 8.67101 22.3114 8.66365 22.3336 8.65105C22.4818 8.56475 22.5306 8.41356 22.5831 8.26504C22.6487 8.07895 22.7122 7.89252 22.7837 7.70944C22.8463 7.5491 22.9184 7.39345 22.984 7.24147C23.1065 7.31306 23.2225 7.39869 23.3515 7.45344C23.5623 7.54275 23.7495 7.6635 23.9266 7.80588C23.9938 7.86007 24.0266 7.92876 24.0292 8.00079C24.0444 8.40631 24.1591 8.78006 24.3685 9.12604C24.4019 9.18112 24.4036 9.23085 24.3832 9.29184C24.2843 9.58809 24.1897 9.88569 24.0945 10.1831C24.0824 10.2214 24.0538 10.2707 24.1401 10.2748C24.2467 9.96206 24.3527 9.64674 24.4685 9.30622C24.5338 9.45195 24.5909 9.57404 24.6434 9.69837C24.6644 9.74631 24.6968 9.79749 24.6376 9.84767C24.6274 9.85636 24.6422 9.8984 24.6502 9.92337C24.659 9.95236 24.6712 9.98068 24.685 10.0074C24.7321 10.0965 24.7738 10.1896 24.832 10.2705C24.8521 10.2983 24.9226 10.3137 24.9595 10.3017C25.0648 10.2672 25.1643 10.2167 25.2661 10.1708C25.2825 10.1637 25.308 10.1501 25.3087 10.1383C25.3169 10.0338 25.3909 10.0431 25.4632 10.0399C25.4961 10.0388 25.5286 10.0228 25.5606 10.0119C25.7317 9.95381 25.8505 9.82481 25.9758 9.70539C26.0654 9.61998 26.0518 9.56836 25.9388 9.51607C25.8738 9.48585 25.826 9.51294 25.7779 9.55208C25.683 9.62846 25.5824 9.67863 25.4548 9.63481C25.3685 9.60482 25.2814 9.56992 25.192 9.55922C25.0373 9.54138 24.9622 9.44047 24.9198 9.31347C24.8517 9.10831 24.8002 8.89791 24.7365 8.69153C24.7027 8.58237 24.7162 8.48191 24.7507 8.37598C24.8319 8.12344 24.9057 7.86766 24.982 7.61288ZM24.6944 8.22869C24.6868 8.25422 24.6756 8.27864 24.6667 8.3034C24.6555 8.30306 24.6445 8.30217 24.633 8.3015C24.6123 8.13715 24.5883 7.9728 24.5722 7.80789C24.5694 7.77255 24.5949 7.73419 24.616 7.67365C24.5756 7.46927 24.433 7.30246 24.2597 7.14904C23.9698 6.89282 23.6891 6.62611 23.4068 6.36096C23.3751 6.33164 23.3602 6.28436 23.3381 6.24701C23.4525 6.16796 23.4712 6.07642 23.4612 5.93983C23.4533 5.8387 23.4905 5.73422 23.5055 5.63098C23.5117 5.58994 23.511 5.54768 23.5148 5.50587C23.525 5.39783 23.5354 5.28923 23.5482 5.18141C23.5498 5.17015 23.5656 5.15186 23.5763 5.15075C23.7469 5.13112 23.8528 5.03891 23.8835 4.84546C23.9642 4.93321 24.0245 5.00691 24.0932 5.07169C24.1895 5.16223 24.2906 5.24809 24.3934 5.33216C24.4138 5.34877 24.4521 5.35747 24.478 5.35223C24.7683 5.28934 25.0528 5.20772 25.3189 5.0698C25.365 5.04538 25.4139 5.01884 25.4639 5.00925C25.505 5.001 25.5657 5.001 25.5896 5.02564C25.6136 5.05017 25.6154 5.11195 25.6044 5.1522C25.5557 5.33428 25.4998 5.51446 25.4463 5.69553C25.1957 6.5397 24.9449 7.38431 24.6944 8.22869Z" fill="#04AB54"/>
<path d="M23.023 60C14.4303 60 6.68417 58.6924 2.30213 56.5023C2.20847 56.4548 2.11949 56.4089 2.0313 56.3633C2.02427 56.3596 2.01736 56.356 2.01056 56.352C0.770349 55.6492 0 54.3263 0 52.8995V11.4968C0 11.3383 0.00557508 11.1898 0.0168365 11.0429C0.247863 7.99072 2.79852 5.17302 7.19896 3.11017C11.4772 1.10451 17.0969 0 23.023 0C28.9489 0 34.5685 1.10451 38.8463 3.11017C43.2463 5.17313 45.7967 7.99061 46.0278 11.0439C46.0391 11.1902 46.0445 11.3386 46.0445 11.4969V52.8996C46.0445 54.3165 45.281 55.6357 44.0522 56.3421C44.0471 56.3452 44.0418 56.3481 44.0366 56.3508C43.9377 56.404 43.8365 56.4558 43.7339 56.5063C39.3567 58.6932 31.6129 60 23.023 60ZM2.62291 55.2487C2.7042 55.2908 2.78626 55.333 2.86955 55.3752C7.01855 57.449 14.7421 58.7383 23.023 58.7383C31.301 58.7383 39.0223 57.4497 43.1737 55.3757C43.2632 55.3316 43.348 55.2884 43.4309 55.2439C44.2649 54.7607 44.7828 53.8633 44.7828 52.8996V11.4968C44.7828 11.3711 44.7785 11.2543 44.7698 11.1398C44.3575 5.69272 34.6019 1.26173 23.0231 1.26173C11.4434 1.26173 1.68732 5.69272 1.27522 11.139C1.2663 11.2542 1.26206 11.3709 1.26206 11.4968V52.8995C1.26195 53.8691 1.78321 54.7681 2.62291 55.2487Z" fill="#04AB54"/>
<path fill-rule="evenodd" clip-rule="evenodd" d="M13.4499 16.9223C14.3818 16.9386 15.3143 16.941 16.2462 16.9369C16.4763 16.936 16.5692 16.9995 16.5645 17.247C16.5503 18.0049 16.5596 18.7628 16.5596 19.5208C16.5602 22.5957 16.5606 25.6707 16.5625 28.7451C16.5625 28.9008 16.5347 29.0415 16.4451 29.1746C16.1072 29.6784 15.7738 30.1849 15.4442 30.6938C15.3974 30.7658 16.8214 30.6773 16.8651 30.6111C18.3481 28.3586 19.8313 26.1061 21.314 23.8536C21.6391 23.3599 21.9637 22.8659 22.2884 22.3718C22.3129 22.3814 22.3374 22.3906 22.3621 22.4002C22.3583 23.6418 22.3988 24.884 22.3082 26.1243C22.2148 27.4012 22.0179 30.2727 21.3028 31.3548C21.0497 31.7378 20.743 32.0715 20.3389 32.3025C20.1585 32.4058 19.9693 32.472 19.7712 32.5074L20.9534 32.1769L24.0474 35.179L26.5184 32.7113C26.1034 32.6326 25.5407 32.2189 25.2302 31.9021C24.5048 31.1633 24.1514 30.2348 23.8846 29.2588C23.5762 28.1292 23.5101 25.3135 23.4988 24.1632C23.493 23.5838 23.4976 23.0044 23.4976 22.425C23.5305 22.418 23.5634 22.4109 23.5958 22.4039C25.2827 24.9678 26.9691 27.5316 28.6557 30.0954C28.8113 30.3322 29.9297 29.9385 29.6745 29.5592C29.6079 29.4605 29.5405 29.3616 29.4731 29.2634C29.3474 29.0799 29.2929 28.8938 29.2941 28.6699C29.3011 27.2747 29.297 25.8796 29.297 24.4845C29.297 22.0767 29.3008 19.669 29.2924 17.2617C29.2915 17.0037 29.3806 16.9349 29.6254 16.9379C30.536 16.9475 31.4472 16.9411 32.3578 16.9366C32.7898 16.9345 33.0471 16.7227 33.0486 16.3814C33.0504 16.0231 32.8197 15.8258 32.3849 15.7996C31.5212 15.7475 30.775 15.4325 30.1756 14.7966C30.1215 14.739 30.0233 14.6808 30.05 14.603C30.0874 14.4961 30.2081 14.5448 30.2923 14.5439C30.869 14.5389 31.4459 14.5485 32.0224 14.5357C32.3355 14.5286 32.5455 14.3208 32.576 14.0341C32.6068 13.7437 32.4374 13.4881 32.1498 13.4202C32.0237 13.3902 31.8885 13.4002 31.7581 13.3853C30.9989 13.3004 30.3739 12.9695 29.8919 12.3713C29.7791 12.2311 29.7862 12.1624 29.9852 12.1633C30.4301 12.1654 30.8754 12.165 31.3204 12.1608C31.6912 12.1572 31.9459 11.9336 31.9572 11.6103C31.9688 11.2869 31.7262 11.0463 31.36 11.0176C30.1463 10.9231 29.4009 10.179 29.2989 8.96081C29.2669 8.57992 29.0412 8.34477 28.7167 8.35436C28.3938 8.36395 28.1519 8.60624 28.1551 8.98456C28.1643 9.92182 27.3544 10.9878 26.1095 11.0185C25.7349 11.0281 25.4893 11.2769 25.4997 11.5967C25.5102 11.9346 25.7748 12.1614 26.159 12.1623C26.5735 12.1631 26.9881 12.1623 27.4022 12.1673C27.4776 12.1681 27.579 12.1252 27.6235 12.211C27.6689 12.2992 27.5778 12.3571 27.5283 12.4154C26.9948 13.0426 26.3172 13.3697 25.4913 13.3964C25.1172 13.4084 24.8623 13.6715 24.8736 14.0057C24.8836 14.307 25.1392 14.5314 25.4968 14.5392C25.8405 14.5463 26.1852 14.536 26.5289 14.5439C26.8253 14.5505 27.125 14.5092 27.4308 14.5726C27.3688 14.7457 27.2485 14.8414 27.1396 14.9425C26.5248 15.5115 25.7881 15.777 24.959 15.8058C24.7072 15.8144 24.5358 15.9389 24.4483 16.167C24.371 16.37 24.4004 16.5683 24.5475 16.7355C24.7006 16.9099 24.9071 16.9433 25.1272 16.9428C26.0079 16.941 26.8886 16.9556 27.7683 16.9361C28.0773 16.9294 28.1613 17.0231 28.1605 17.3294C28.1501 20.485 28.1547 23.6407 28.153 26.7965C28.153 26.9005 28.176 27.0121 28.1215 27.1127C28.0132 27.0795 27.9874 26.9962 27.945 26.9322C26.5406 24.8058 25.1385 22.6777 23.7322 20.5529C23.6318 20.4014 23.6513 20.2895 23.7487 20.1459C24.118 19.6019 24.4776 19.0513 24.8341 18.4994C25.0601 18.1492 25.0074 17.8084 24.711 17.6233C24.4243 17.4439 24.1043 17.5371 23.8827 17.8692C23.6134 18.2729 23.3355 18.6716 23.0856 19.0875C22.9628 19.2919 22.8996 19.2777 22.783 19.0938C22.5171 18.6754 22.2448 18.261 21.9651 17.8513C21.7325 17.5109 21.4494 17.4497 21.1403 17.6544C20.8554 17.8434 20.8028 18.1459 21.0108 18.4744C21.2495 18.8502 21.4977 19.2228 21.7511 19.584C22.1496 20.1526 22.2665 20.2916 22.1046 20.5529C22.0672 20.6137 21.7667 21.116 21.7502 21.1407C20.5297 22.987 19.3085 24.8332 18.0873 26.6792C17.9845 26.8344 17.8788 26.988 17.7743 27.1423C17.7082 27.0249 17.6963 26.9284 17.696 26.8323C17.6944 25.9832 17.6944 25.1345 17.6944 24.2855C17.6948 21.9485 17.7002 19.6114 17.6898 17.2744C17.6886 16.9952 17.7845 16.9269 18.0407 16.9374C18.4548 16.9536 18.8701 16.941 19.2851 16.9407C19.8112 16.9403 20.3377 16.9498 20.8634 16.9352C21.2172 16.9257 21.4502 16.6829 21.4511 16.3667C21.4519 16.0429 21.2285 15.8273 20.8659 15.8026C20.7951 15.7976 20.7239 15.7985 20.6536 15.7923C19.8461 15.719 19.1569 15.3914 18.5859 14.8183C18.5255 14.758 18.421 14.6867 18.4548 14.597C18.4931 14.4959 18.6159 14.5445 18.7 14.544C19.2668 14.539 19.8336 14.5486 20.4 14.537C20.7556 14.5296 20.9667 14.3052 20.9777 13.9623C20.9871 13.6705 20.7462 13.4257 20.4185 13.3962C20.3482 13.39 20.2766 13.3958 20.2062 13.3896C19.4311 13.3192 18.7965 12.9826 18.3054 12.379C18.2641 12.3283 18.1832 12.2704 18.2392 12.1993C18.2667 12.1646 18.3494 12.1651 18.4073 12.1651C18.8625 12.1623 19.3184 12.173 19.7733 12.1593C20.1188 12.1485 20.3481 11.9196 20.3531 11.6186C20.3584 11.2756 20.1543 11.0276 19.8028 11.023C18.5604 11.0067 17.7028 10.0079 17.6968 8.91275C17.6956 8.66556 17.5707 8.49318 17.3343 8.40665C16.9083 8.25056 16.5778 8.5099 16.5543 9.03796C16.5023 10.2105 15.4902 11 14.5307 11.0271C14.1574 11.0376 13.9139 11.2452 13.9052 11.5789C13.8972 11.892 14.132 12.138 14.4821 12.1567C14.7545 12.1709 15.0287 12.1485 15.3011 12.1608C15.5534 12.1724 15.8123 12.1255 16.0852 12.2047C15.8459 12.5588 15.5716 12.8209 15.2332 13.0157C14.8035 13.2635 14.3426 13.3858 13.8447 13.4016C13.5072 13.412 13.2803 13.6576 13.2789 13.9593C13.2774 14.2743 13.4926 14.5066 13.8256 14.5337C13.9966 14.5474 14.1693 14.5415 14.3412 14.5419C14.8324 14.5428 15.3234 14.5424 15.8246 14.5424C15.8051 14.7027 15.7239 14.7746 15.6444 14.8512C15.0376 15.4381 14.3158 15.7581 13.4705 15.7998C13.0455 15.8209 12.8208 16.0155 12.8153 16.3558C12.8096 16.7001 13.0291 16.9153 13.4499 16.9223Z" fill="#04AB54"/>
<path fill-rule="evenodd" clip-rule="evenodd" d="M11.2937 9.78945C11.2914 9.3953 11.5844 9.09693 11.9734 9.09693C12.3527 9.09737 12.6707 9.41203 12.6703 9.78666C12.6695 10.16 12.3474 10.4833 11.9769 10.4825C11.5933 10.4812 11.2959 10.1799 11.2937 9.78945Z" fill="#04AB54"/>
<path fill-rule="evenodd" clip-rule="evenodd" d="M22.9064 14.4558C22.5185 14.4621 22.2228 14.1637 22.2219 13.7654C22.2211 13.3929 22.5162 13.0919 22.8932 13.0816C23.2705 13.0712 23.5935 13.3854 23.5977 13.7667C23.6014 14.155 23.3063 14.4497 22.9064 14.4558Z" fill="#04AB54"/>
<path fill-rule="evenodd" clip-rule="evenodd" d="M16.5971 5.34959C16.605 4.95923 16.8876 4.66443 17.2522 4.66566C17.6259 4.66699 17.9631 4.9958 17.9569 5.35372C17.9498 5.75155 17.6518 6.0487 17.2639 6.04412C16.8607 6.03955 16.5884 5.75612 16.5971 5.34959Z" fill="#04AB54"/>
<path fill-rule="evenodd" clip-rule="evenodd" d="M36.6817 16.3586C36.6772 15.9645 36.9739 15.6598 37.363 15.6594C37.7405 15.6585 38.0634 15.9794 38.0602 16.352C38.0569 16.7161 37.7517 17.025 37.3838 17.0367C36.9959 17.0487 36.6863 16.7499 36.6817 16.3586Z" fill="#04AB54"/>
<path fill-rule="evenodd" clip-rule="evenodd" d="M9.49541 16.3463C9.49608 16.7359 9.18444 17.0489 8.80389 17.0414C8.41598 17.0339 8.10824 16.7213 8.11382 16.3404C8.11939 15.9618 8.43237 15.6707 8.82508 15.6596C9.12668 15.6504 9.53153 16.0243 9.49541 16.3463Z" fill="#04AB54"/>
<path fill-rule="evenodd" clip-rule="evenodd" d="M34.8532 9.76981C34.8602 10.1585 34.5685 10.4598 34.1719 10.4736C33.8011 10.4865 33.4735 10.1615 33.4739 9.78152C33.4747 9.41112 33.7718 9.10806 34.1453 9.09725C34.5364 9.08587 34.846 9.38023 34.8532 9.76981Z" fill="#04AB54"/>
<path fill-rule="evenodd" clip-rule="evenodd" d="M30.7171 5.38222C30.7146 5.74024 30.412 6.04609 30.0611 6.04609C29.651 6.04564 29.3356 5.73935 29.3406 5.34609C29.3452 4.97313 29.6774 4.65391 30.0519 4.66182C30.4303 4.67019 30.7195 4.9835 30.7171 5.38222Z" fill="#04AB54"/>
<path fill-rule="evenodd" clip-rule="evenodd" d="M40.1831 8.90354C40.1548 8.93554 40.1269 8.9671 40.0986 8.99922C40.0774 8.97759 40.0561 8.95584 40.0344 8.93465C40.0748 8.91547 40.1159 8.89718 40.1569 8.87844C40.165 8.88692 40.1743 8.89517 40.1831 8.90354Z" fill="#04AB54"/>
<path fill-rule="evenodd" clip-rule="evenodd" d="M40.1218 8.88898C40.1397 8.86745 40.1593 8.85028 40.1822 8.88195C40.1835 8.88373 40.1602 8.90314 40.148 8.91407C40.1393 8.90559 40.1301 8.89734 40.1218 8.88898Z" fill="#04AB54"/>
<path fill-rule="evenodd" clip-rule="evenodd" d="M31.1433 20.6853C31.1565 21.0067 31.3918 21.2169 31.7526 21.2222C32.1775 21.2281 32.6025 21.2268 33.0275 21.2343C33.1116 21.2359 33.2331 21.1859 33.271 21.2876C33.3039 21.3766 33.2019 21.4461 33.1432 21.5119C32.6134 22.1095 31.9538 22.4354 31.1508 22.4667C30.75 22.4825 30.5095 22.7089 30.5141 23.0477C30.5182 23.3893 30.7663 23.6046 31.167 23.6075C31.7235 23.6112 32.2803 23.6089 32.8369 23.6134C32.9106 23.6142 33.0208 23.5731 33.0454 23.6742C33.0567 23.7199 32.9863 23.7948 32.9397 23.8448C32.3462 24.4803 31.6129 24.8212 30.7443 24.8579C30.2353 24.8795 29.9368 25.2071 30.0792 25.6177C30.1848 25.922 30.4275 26.0123 30.7273 26.0114C31.6442 26.0093 32.5614 26.0174 33.4788 26.0069C33.7049 26.0045 33.8081 26.0523 33.8064 26.3049C33.7965 27.7313 33.7977 30.9377 33.8036 32.3641C33.8044 32.484 33.7781 32.5527 33.7171 32.5894H35.0651C34.9607 32.5394 34.929 32.4375 34.9308 32.2622C34.9407 30.9062 34.9375 27.7705 34.9395 26.4141C34.9404 26.0123 34.9412 26.0094 35.3419 26.0087C36.2526 26.0069 37.1637 26.0149 38.0743 26.0058C38.4614 26.0016 38.6674 25.7855 38.6719 25.4276C38.6765 25.105 38.4947 24.9124 38.1192 24.8849C37.2852 24.8245 36.5339 24.5727 35.9221 23.9797C35.8242 23.8852 35.7098 23.799 35.6574 23.6104C36.3009 23.6104 36.9143 23.6129 37.5274 23.61C37.9566 23.6079 38.2082 23.4015 38.217 23.0535C38.2258 22.7039 37.9803 22.4825 37.5578 22.4642C36.8257 22.4322 36.2047 22.1508 35.6945 21.6284C35.5929 21.5248 35.4788 21.4217 35.436 21.2563C35.496 21.2464 35.5342 21.2347 35.573 21.2347C36.0586 21.2315 36.5449 21.2423 37.0297 21.2234C37.3685 21.2102 37.5907 20.9703 37.5941 20.6657C37.5974 20.3562 37.3789 20.1264 37.0455 20.0885C35.7 19.9357 35.0973 19.3343 34.9386 17.9854C34.8987 17.6458 34.6777 17.4281 34.371 17.4252C34.0588 17.4223 33.8286 17.657 33.8003 18.008C33.7004 19.2461 32.9666 19.9812 31.7272 20.0857C31.3538 20.1169 31.1294 20.3474 31.1433 20.6853Z" fill="#04AB54"/>
<path fill-rule="evenodd" clip-rule="evenodd" d="M7.52565 25.9782C7.64049 26.0094 7.76604 26.0098 7.88646 26.0098C8.76697 26.0119 9.64726 26.0165 10.5275 26.0065C10.7665 26.0037 10.8664 26.061 10.8643 26.3266C10.8518 27.7225 10.8509 33.0908 10.8647 34.4863C10.8664 34.6532 10.8331 34.7394 10.7499 34.7813H12.0767C12.0205 34.7464 11.9963 34.6808 11.997 34.567C12.0064 33.1507 12.0105 27.7621 11.9991 26.3458C11.9968 26.0731 12.0851 26.0016 12.346 26.0052C13.2669 26.0186 14.1881 26.0144 15.109 26.0077C15.4883 26.0048 15.7597 25.7517 15.7562 25.4312C15.7526 25.1149 15.5035 24.8735 15.132 24.8622C14.2621 24.8368 13.5237 24.5202 12.9062 23.9092C12.8334 23.8371 12.7138 23.7634 12.7472 23.6731C12.7913 23.5525 12.9382 23.6103 13.0423 23.6069C13.6279 23.5886 14.2139 23.6398 14.8 23.5803C15.0212 23.5575 15.155 23.4517 15.2316 23.2586C15.3985 22.8399 15.1455 22.4886 14.6537 22.4669C13.8651 22.4323 13.2044 22.1305 12.6798 21.5388C12.6145 21.4655 12.4996 21.3889 12.5329 21.2906C12.5741 21.1704 12.7106 21.2366 12.803 21.2348C13.2076 21.2278 13.6125 21.2371 14.0171 21.229C14.4111 21.2211 14.6631 20.9876 14.6602 20.6509C14.6577 20.3279 14.4204 20.1123 14.0376 20.0848C12.8589 19.9995 12.0876 19.2213 12.0054 18.0346C11.9794 17.6605 11.7513 17.4211 11.4253 17.4252C11.0974 17.4294 10.8793 17.6688 10.858 18.0462C10.7941 19.1899 9.98845 20.0044 8.84279 20.0839C8.44095 20.1118 8.19264 20.3353 8.19888 20.6632C8.20557 21.0062 8.46904 21.2259 8.88817 21.2305C9.29269 21.2346 9.69688 21.23 10.1012 21.2334C10.1782 21.2338 10.2849 21.1959 10.3248 21.275C10.3736 21.3706 10.2724 21.439 10.2162 21.5027C9.67971 22.107 9.0155 22.4434 8.19799 22.4667C7.81889 22.4771 7.58073 22.706 7.5785 23.0343C7.57616 23.3769 7.82681 23.6054 8.21962 23.6091C8.68513 23.6133 9.15086 23.6029 9.61615 23.6146C9.77905 23.6187 10.0348 23.5214 10.0858 23.6737C10.1401 23.8359 9.90103 23.9588 9.76779 24.0745C9.19067 24.5747 8.52033 24.8444 7.7521 24.8616C7.39742 24.8695 7.16405 25.053 7.11555 25.3511C7.0714 25.6249 7.24489 25.9024 7.52565 25.9782Z" fill="#04AB54"/>
<path d="M1.12749 41.249C0.965928 41.249 0.804365 41.1874 0.681158 41.0641C0.434856 40.8175 0.435079 40.4182 0.681493 40.1719L7.66225 33.1973C7.78434 33.0753 7.95081 33.0072 8.12352 33.0129C8.29601 33.0172 8.45925 33.0919 8.57521 33.2196L9.70592 34.4649L14.7677 29.3549C14.886 29.2356 15.0469 29.1682 15.215 29.168C15.3827 29.168 15.5444 29.2348 15.6628 29.3535L18.7215 32.4231L19.9806 31.1141C20.0981 30.9919 20.2599 30.9221 20.4294 30.9206C20.6015 30.9235 20.7619 30.9859 20.8817 31.1057L24.0512 34.2807L30.073 28.2658C30.3167 28.0224 30.7103 28.0195 30.9576 28.2588L38.2395 35.3052L40.6047 32.6303C40.8342 32.371 41.2295 32.3448 41.4907 32.5716C41.5856 32.6539 43.8283 34.6303 45.0513 38.3839C45.1593 38.7152 44.9782 39.0712 44.6468 39.1792C44.3157 39.2875 43.9594 39.106 43.8515 38.7748C43.0572 36.3366 41.7747 34.7059 41.1038 33.9707L38.7476 36.6355C38.6336 36.7645 38.4716 36.8414 38.2994 36.8481C38.1271 36.855 37.9599 36.7907 37.8362 36.671L30.5259 29.5969L24.4965 35.6194C24.3781 35.7376 24.2178 35.8039 24.0507 35.8039C23.8833 35.8038 23.7224 35.7371 23.6041 35.6188L20.4438 32.4529L19.1843 33.7623C19.0666 33.8846 18.9047 33.9543 18.7352 33.9558C18.5673 33.9562 18.4024 33.8904 18.2827 33.7702L15.2172 30.694L10.1342 35.8254C10.0123 35.9484 9.84463 36.0181 9.67225 36.0121C9.4992 36.0084 9.3353 35.9337 9.21889 35.8054L8.08584 34.5577L1.57315 41.0644C1.45028 41.1875 1.28894 41.249 1.12749 41.249Z" fill="#04AB54"/>
<path fill-rule="evenodd" clip-rule="evenodd" d="M8.109 33.6269C8.109 33.6269 8.67965 35.7245 7.71094 37.0772C7.14932 37.8617 5.78913 39.4645 5.44806 40.2033C5.10698 40.9421 4.14095 41.7388 4.14095 41.7388L2.60593 42.9887L4.1405 39.7251L4.99325 36.6794L8.109 33.6269Z" fill="#04AB54"/>
<path fill-rule="evenodd" clip-rule="evenodd" d="M15.6587 30.286C15.6587 30.286 13.8805 33.8192 14.0511 34.6717C14.2216 35.5245 13.3477 37.2147 13.3477 37.2147L10.6402 39.7723L12.7263 35.3859L13.1495 31.8547L15.1796 29.8053L15.6587 30.286Z" fill="#04AB54"/>
<path fill-rule="evenodd" clip-rule="evenodd" d="M20.4121 31.5572L19.5208 33.6495L18.7816 35.4512L18.7063 33.3306L20.4121 31.5572Z" fill="#04AB54"/>
<path fill-rule="evenodd" clip-rule="evenodd" d="M25.0045 31.7936L25.9618 34.088L22.6133 37.843L20.5709 41.3234L18.1363 43.1768L20.1709 39.9216L21.0745 37.5621L23.924 34.5537L23.7654 33.2918L25.0045 31.7936Z" fill="#04AB54"/>
<path fill-rule="evenodd" clip-rule="evenodd" d="M41.0416 33.9069L39.5728 38.0515L40.0282 40.3399L38.6721 37.6236L37.2279 36.097L38.301 36.5495L41.0416 33.9069Z" fill="#04AB54"/>
<path d="M44.7799 49.2649H1.05603C0.707593 49.2649 0.425053 48.9825 0.425053 48.634C0.425053 48.2856 0.707593 48.0032 1.05603 48.0032H44.7799C45.1283 48.0032 45.4108 48.2856 45.4108 48.634C45.4108 48.9825 45.1283 49.2649 44.7799 49.2649Z" fill="#04AB54"/>
<path d="M27.9804 42.3277C28.0353 42.0926 28.4577 41.5639 28.4577 41.5639C28.4577 41.5639 26.9885 40.0869 26.7791 39.7751C26.5698 39.4625 26.6393 38.9261 26.7458 38.4561C27.0584 38.5627 27.7488 38.8822 28.3844 39.2348C27.9034 38.6583 27.286 38.2285 26.8195 38.052C27.4841 37.9563 28.4614 37.8979 29.3392 38.0008C29.3392 38.0008 28.5788 37.6004 28.2924 37.4681C28.2924 37.4681 28.3327 37.6591 28.3403 37.7986C27.7194 37.4348 26.4008 36.7448 26.4008 36.7448C26.4008 36.7448 27.7413 36.8805 28.4319 37.0677C28.4319 37.0677 28.153 36.7701 27.9803 36.579C29.0378 36.8953 30.0737 37.5601 30.0737 37.5601C30.0737 37.5601 29.9859 37.3561 29.9115 37.1492C30.3326 37.513 30.7406 37.9567 30.7406 37.9567C30.7406 37.9567 30.9482 37.9969 31.0715 38.0008C31.1244 37.8501 31.231 37.4224 31.2621 37.0843C31.3083 37.1666 31.3815 37.3007 31.3815 37.3007C31.3815 37.3007 31.367 36.7979 31.3524 36.5037C31.4439 36.6376 31.5983 36.8583 31.7286 37.0473L32.072 37.334L31.9637 36.9869L32.3753 37.3851L32.3092 37.0989C32.3092 37.0989 32.2172 36.996 32.2059 36.9261C32.195 36.8562 32.1934 36.7538 32.208 36.6582C32.2226 36.5624 32.3037 36.5624 32.3732 36.5903C32.4431 36.6178 32.5771 36.6764 32.9555 36.8601C32.7536 36.5424 32.4798 36.1732 32.4798 36.1732C32.4798 36.1732 32.6707 36.2652 32.8509 36.4009C32.8509 36.4009 32.4743 35.9565 32.2741 35.7783C32.2741 35.7783 32.2774 35.9032 32.2719 35.9361C32.0405 35.6942 31.7655 35.3487 31.7655 35.3396C31.7655 35.33 32.9445 35.6388 33.3138 35.9693C33.6826 36.3001 33.5065 36.7579 33.4927 36.7913C33.4789 36.8242 33.4548 36.8233 33.4373 36.8196C33.4199 36.8158 33.3761 36.8067 33.3761 36.8067C33.3761 36.8067 33.3807 36.8571 33.3694 36.9498C33.3586 37.0431 33.3191 37.0914 33.2611 37.1666C33.2691 37.2799 33.2949 37.4322 33.2949 37.4534C33.2949 37.4742 33.2483 37.4945 33.2163 37.5009C33.1838 37.5076 33.1143 37.5141 33.1143 37.5141C33.1143 37.5141 33.0931 37.5762 33.0876 37.5936C33.0818 37.6111 33.0161 37.6078 33.0161 37.6078C33.0161 37.6078 32.9882 37.6553 32.9848 37.6673C32.9812 37.6789 32.9378 37.6782 32.925 37.6811C32.912 37.6835 32.848 37.7855 32.8229 37.8516C32.7984 37.9179 32.691 37.9249 32.6053 37.8904C32.3381 37.7831 32.3768 37.6233 32.0709 37.6041C31.7655 37.5845 31.3811 37.8867 31.1391 38.1402C31.631 37.784 31.9839 37.7951 32.2774 37.8755C32.2774 37.8755 32.2004 38.1914 32.1712 38.5589C32.1417 38.9261 32.3182 39.5141 32.3182 39.5141C32.3182 39.5141 32.4027 39.6315 32.4909 39.7675C32.3182 39.7013 31.892 39.4882 31.892 39.4882L32.1417 39.8961C32.1417 39.8961 31.5648 39.47 31.5395 39.4478C31.5137 39.4258 31.3118 38.3753 31.3118 38.3753L31.0766 38.456C31.0766 38.456 31.0766 38.7386 31.1429 39.2569C31.4991 39.6497 32.456 40.3394 32.5018 40.3664C32.5481 40.3926 32.5938 40.3964 32.6334 40.3844C32.6726 40.3727 32.7758 40.3286 32.8819 40.277C32.989 40.2254 32.9943 40.1771 32.9852 40.1633C32.976 40.1494 32.929 40.1436 32.8013 40.1153C32.6739 40.0867 32.5857 40.05 32.5536 40.0346C32.5216 40.0192 32.5019 39.9347 32.5033 39.9243C32.5037 39.9143 32.5569 39.8261 32.5802 39.7912C32.6031 39.7563 32.6168 39.7591 32.6323 39.7654C32.651 39.7732 32.8582 39.9052 33.2678 39.8207C33.6774 39.7362 33.8226 39.4349 33.8667 39.3854C33.9104 39.3359 33.9491 39.3471 33.9765 39.3672C34.0041 39.3871 34.0539 39.4296 34.0889 39.4663C34.1238 39.5033 34.1218 39.5287 34.1072 39.549C34.0923 39.5691 33.9878 39.6647 33.9512 39.7767C33.9142 39.8886 34.0266 40.0577 34.032 40.0868C34.0374 40.1163 33.9932 40.2099 33.9455 40.3369C33.898 40.4639 33.9346 40.517 33.962 40.5994C33.9896 40.6818 33.8519 40.6565 33.8335 40.6436C33.8152 40.6307 33.7893 40.5296 33.7823 40.5059C33.7748 40.4817 33.8353 40.2137 33.8426 40.175C33.8501 40.1366 33.8448 40.0484 33.7727 39.929C33.4681 39.9881 33.3339 40.175 33.3339 40.175C33.3339 40.175 33.4938 40.254 33.5083 40.2928C33.5234 40.3311 33.475 40.6195 33.4604 40.6512C33.4459 40.682 33.3064 40.7078 33.3064 40.7078C33.3064 40.7078 33.0126 40.9538 32.9535 40.9891C32.8949 41.0237 32.8565 41.0054 32.8215 40.9853C32.7866 40.9649 32.7187 40.9337 32.7187 40.9337C32.5202 41.1065 32.2667 41.1119 32.1069 41.0828C32.0553 40.9817 32.0536 40.8585 32.0536 40.8585C32.0536 40.8585 32.2338 40.8955 32.3403 40.8326C31.297 40.3844 30.467 39.7638 30.4374 39.7235C30.4079 39.6831 30.1786 38.6563 30.1786 38.6563C30.1786 38.6563 29.6276 38.7666 28.9554 38.8991C29.7598 39.4055 30.9002 40.3645 30.9777 40.4665C31.0547 40.5684 31.0493 40.6842 31.0493 40.6842H29.8478C29.8478 40.6842 29.286 39.9267 28.8505 39.4996C29.0712 39.8188 29.6164 40.943 29.6717 41.0754C29.7267 41.2073 29.6938 41.3289 29.6567 41.4096C29.6201 41.4904 28.2537 44.1041 28.2095 44.2178C28.1654 44.3316 28.1529 44.453 28.16 44.5392C28.3548 44.7743 28.9317 44.9945 28.9317 44.9945C28.9317 44.9945 29.2546 45.0757 29.3725 45.1307C29.4899 45.1855 29.4124 45.3034 29.3467 45.3287C29.2805 45.3549 29.082 45.4132 28.9168 45.4648C28.7516 45.516 28.6196 45.5057 28.4136 45.516C28.208 45.5274 27.7563 45.5789 27.4771 45.5568C27.1979 45.5348 27.2087 45.362 27.2457 45.2556C27.2824 45.1487 27.925 42.5628 27.9804 42.3277Z" fill="#04AB54"/>
<path d="M30.8309 37.4556C30.8309 37.4556 30.1571 36.8202 29.6442 36.5317L29.6563 36.785C29.6563 36.785 28.858 36.3202 27.7138 35.9864C27.4329 35.3796 27.3363 35.105 27.3363 35.105C27.3363 35.105 28.4472 35.5241 29.3433 36.1001L29.2866 35.7813C29.2866 35.7813 30.2054 36.4239 30.8309 37.4556Z" fill="#04AB54"/>
<path d="M30.4148 36.2449C30.4148 36.2449 29.7631 35.5744 29.2133 35.0613C29.5388 35.2195 30.181 35.6203 30.181 35.6203L30.1411 35.3905C30.1411 35.3905 30.693 35.87 31.0888 36.5073C31.0888 36.5073 30.6069 36.1205 30.3958 36.0003C30.4061 36.0622 30.4148 36.2449 30.4148 36.2449Z" fill="#04AB54"/>
<path d="M31.2794 35.905L31.0883 35.3393L31.6394 35.8276V35.6881L32.2637 36.3973L31.8155 36.1252L31.8266 36.2979L31.2794 35.905Z" fill="#04AB54"/>
<path d="M34.86 40.1337C34.823 40.2456 34.9354 40.4147 34.9408 40.4441C34.9462 40.4738 34.902 40.5673 34.8548 40.6939C34.8068 40.8204 34.8434 40.8736 34.871 40.9564C34.8985 41.0392 34.7611 41.0131 34.7428 41.0006C34.7245 40.9877 34.6987 40.8866 34.6912 40.8624C34.6838 40.8387 34.7446 40.5706 34.752 40.532C34.759 40.4936 34.7537 40.4054 34.6821 40.286C34.377 40.3446 34.243 40.532 34.243 40.532C34.243 40.532 34.4027 40.6115 34.4172 40.6497C34.4323 40.6885 34.3843 40.9765 34.3697 41.0077C34.3548 41.0393 34.2153 41.0648 34.2153 41.0648C34.2153 41.0648 33.9215 41.3107 33.8629 41.3458C33.8042 41.3807 33.7654 41.3623 33.7304 41.342C33.6955 41.322 33.6276 41.2908 33.6276 41.2908C33.4296 41.4636 33.1756 41.469 33.0163 41.4399C32.9747 41.3583 32.9655 41.2629 32.9633 41.2288C33.2397 41.2625 33.3437 41.1609 33.3437 41.1609C33.3437 41.1609 33.2942 41.0974 33.293 41.0864C33.2913 41.0752 33.3233 41.0561 33.4154 40.9953C33.5077 40.935 33.5752 40.8676 33.6069 40.8414C33.6389 40.8152 33.6498 40.8027 33.6938 40.8076C33.738 40.8126 33.9981 40.8055 34.0546 40.786C34.1113 40.7669 34.1041 40.7256 34.1041 40.7052C34.1041 40.6844 34.1195 40.2932 34.1237 40.2491C34.1279 40.2046 34.1433 40.1845 34.1882 40.1754C34.5886 40.0876 34.7318 39.7916 34.7755 39.7425C34.8196 39.693 34.8579 39.7037 34.8858 39.7243C34.9132 39.7447 34.9627 39.7867 34.9977 39.8233C35.0327 39.8604 35.0306 39.8858 35.0161 39.9061C35.0015 39.9261 34.8967 40.0216 34.86 40.1337Z" fill="#04AB54"/>
<path d="M29.0182 46.0235C29.3598 46.163 30.3184 46.3373 30.3184 46.3373C30.1385 46.1629 29.863 45.6232 29.7456 45.2739C29.7456 45.2739 30.0212 45.5903 30.2122 45.7297C30.1494 45.5128 30.1061 45.1811 30.1245 44.9726C30.1399 44.2863 30.6122 43.7347 30.6122 43.7347C30.6122 43.7347 30.5793 43.9408 30.5573 44.2088C31.0971 43.3197 31.8392 43.0443 31.8392 43.0443C31.3123 43.4109 30.9369 43.9654 30.8599 44.5859C30.7233 45.6905 31.5853 46.5861 32.7861 46.5861C33.9865 46.5861 35.0706 45.6905 35.2076 44.5859C35.3445 43.4809 34.4821 42.5848 33.2818 42.5848C33.1128 42.5848 32.9467 42.6036 32.7853 42.6364L32.688 42.1994C33.3014 42.0895 33.8084 42.1665 34.543 42.3389C34.4456 42.2206 34.3199 42.1011 34.223 42.0151C35.3409 42.3542 36.0559 43.3365 35.909 44.4953C35.7321 45.8912 34.3712 47.0308 32.8315 47.1002C32.7824 47.1023 31.2316 47.1002 30.8404 47.1002C30.2968 47.1002 28.1884 46.5084 28.1884 46.5084L30.0321 46.6185C30.0321 46.6185 29.3635 46.3577 29.0182 46.0235Z" fill="#04AB54"/>
<path d="M31.6983 41.4242C31.6392 41.4134 30.1921 41.2195 30.1921 41.2195L29.9386 40.8769H31.7388L32.4255 41.7368L32.949 44.3581C33.0402 44.3832 33.1164 44.4701 33.1297 44.5749C33.1456 44.6994 33.0672 44.8002 32.9545 44.8002C32.8418 44.8002 32.7377 44.6995 32.7222 44.5749C32.7177 44.5384 32.7218 44.5037 32.7323 44.473L31.9627 41.8214C31.9627 41.8214 28.7888 44.5504 28.7559 44.5725C28.723 44.5946 28.668 44.6016 28.6089 44.5688C28.5503 44.5355 28.3667 44.4439 28.3775 44.4256C28.3888 44.4074 31.7534 41.5097 31.7534 41.5097C31.7534 41.5097 31.757 41.4356 31.6983 41.4242Z" fill="#04AB54"/>
<path d="M21.404 46.6401C21.404 46.6401 20.7355 46.3792 20.3901 46.0449C20.7317 46.1844 21.6907 46.3588 21.6907 46.3588C21.5105 46.1844 21.235 45.6447 21.1176 45.2953C21.1176 45.2953 21.3929 45.6118 21.584 45.7511C21.5218 45.5343 21.4781 45.2026 21.4964 44.9941C21.5118 44.3078 21.9842 43.7562 21.9842 43.7562C21.9842 43.7562 21.9513 43.9622 21.9292 44.2303C22.4692 43.3412 23.2113 43.0658 23.2113 43.0658C22.6843 43.4324 22.3089 43.9869 22.2321 44.6074C22.0952 45.712 22.9573 46.6076 24.1582 46.6076C25.3585 46.6076 26.4595 45.714 26.5797 44.6074C26.6514 43.9494 26.5172 43.4828 26.2426 43.1665L26.3675 42.6745L24.559 44.3285C24.5814 44.3631 24.5914 44.4063 24.583 44.4538C24.5639 44.5678 24.4515 44.6603 24.3317 44.6603C24.2119 44.6603 24.1306 44.5679 24.1498 44.4538C24.1689 44.3398 24.2818 44.2473 24.4016 44.2473C24.407 44.2473 24.4124 44.2486 24.4179 44.249L25.8096 42.7748C25.495 42.6436 25.0251 42.5846 25.0251 42.5846C25.0251 42.5846 25.3806 42.5159 25.5046 42.5183C25.0192 42.3889 24.3447 42.4384 24.3447 42.4384C24.3447 42.4384 24.5594 42.3477 24.8625 42.3011C24.2456 42.3011 23.8102 42.4205 23.298 42.5846C24.353 41.8475 25.6204 42.0355 26.2239 42.336L27.155 41.35L26.9894 40.4082L27.5018 40.9867L27.739 42.3918L27.513 43.2399L27.243 41.8735L26.5187 42.5362C27.0782 43.0144 27.3814 43.7235 27.2812 44.5165C27.1047 45.9125 25.743 47.052 24.2037 47.1215C24.1547 47.1236 22.6037 47.1215 22.2126 47.1215C21.669 47.1215 19.5602 46.5296 19.5602 46.5296L21.404 46.6401Z" fill="#04AB54"/>
<path fill-rule="evenodd" clip-rule="evenodd" d="M16.5996 45.9599C19.0433 45.9599 18.6828 45.9599 21.0119 45.9599C20.6941 45.6985 17.2231 45.6542 16.5996 45.9599Z" fill="#04AB54"/>
<path d="M21.0368 46.0894H16.6245C16.5878 46.0894 16.5559 46.0641 16.5477 46.0284C16.5394 45.9926 16.5568 45.9559 16.5898 45.9397C16.9222 45.7768 17.9652 45.7189 18.8304 45.7189C19.5643 45.7189 20.8653 45.7675 21.0868 45.9497C21.1125 45.9707 21.1222 46.0057 21.111 46.0371C21.0998 46.0684 21.0701 46.0894 21.0368 46.0894ZM17.447 45.9317H20.2478C19.8806 45.8985 19.3956 45.8765 18.8304 45.8765C18.3009 45.8765 17.8239 45.8964 17.447 45.9317Z" fill="#04AB54"/>
<path fill-rule="evenodd" clip-rule="evenodd" d="M17.7247 44.4749C19.69 44.4749 20.1054 44.4749 22.0708 44.4749C22.0712 44.4308 22.0716 44.3871 22.0716 44.3429C20.108 44.3429 19.6947 44.3429 17.731 44.3429C17.7286 44.3871 17.7267 44.4308 17.7247 44.4749Z" fill="#04AB54"/>
<path d="M22.0671 44.6162H17.721C17.6994 44.6162 17.6788 44.6074 17.6639 44.5918C17.6489 44.5762 17.6411 44.5552 17.6421 44.5337L17.6484 44.4012C17.6506 44.3594 17.6852 44.3265 17.7272 44.3265H22.0679C22.1115 44.3265 22.1468 44.3617 22.1468 44.4053L22.146 44.5379C22.1456 44.5813 22.1104 44.6162 22.0671 44.6162Z" fill="#04AB54"/>
<path fill-rule="evenodd" clip-rule="evenodd" d="M35.6446 46.8895C37.3848 46.8895 39.125 46.8895 40.8647 46.8895C40.8659 46.852 40.8668 46.8149 40.8671 46.7779C39.1262 46.7779 37.3848 46.7779 35.6436 46.7779C35.6442 46.8149 35.6446 46.852 35.6446 46.8895Z" fill="#04AB54"/>
<path d="M40.8735 46.9733H35.6535C35.6099 46.9733 35.5746 46.9381 35.5746 46.8945C35.5746 46.8573 35.5742 46.8205 35.5737 46.7839C35.5734 46.7628 35.5817 46.7425 35.5965 46.7274C35.6113 46.7124 35.6314 46.704 35.6526 46.704H40.8761C40.8972 46.704 40.9174 46.7124 40.9322 46.7274C40.947 46.7425 40.9553 46.7627 40.9549 46.7839C40.9545 46.8213 40.9536 46.859 40.9525 46.897C40.951 46.9395 40.9161 46.9733 40.8735 46.9733Z" fill="#04AB54"/>
<path fill-rule="evenodd" clip-rule="evenodd" d="M18.0716 46.9871C19.4435 46.9871 20.8153 46.9871 22.1868 46.9871C22.1865 46.9434 22.1865 46.8992 22.1863 46.8555C20.8126 46.8555 19.4392 46.8555 18.0662 46.8555C18.0681 46.8992 18.07 46.9434 18.0716 46.9871Z" fill="#04AB54"/>
<path d="M22.1951 47.0808H18.0798C18.0375 47.0808 18.0027 47.0472 18.001 47.0048L17.9957 46.8737C17.9948 46.8522 18.0027 46.8312 18.0175 46.8157C18.0323 46.8001 18.053 46.7914 18.0745 46.7914H22.1945C22.2379 46.7914 22.2732 46.8264 22.2735 46.8698L22.274 47.0011C22.2741 47.0221 22.266 47.0424 22.2512 47.0573C22.2363 47.0723 22.216 47.0808 22.1951 47.0808Z" fill="#04AB54"/>
<path fill-rule="evenodd" clip-rule="evenodd" d="M44.66 43.1757C43.3825 43.1757 42.1043 43.1757 40.8266 43.1757C40.8261 43.2136 40.8257 43.2519 40.8252 43.2896C42.103 43.2896 43.3812 43.2896 44.6588 43.2896C44.6592 43.2519 44.6596 43.2136 44.66 43.1757Z" fill="#04AB54"/>
<path d="M44.6861 43.3468H40.8525C40.8314 43.3468 40.8112 43.3384 40.7964 43.3234C40.7816 43.3084 40.7735 43.2881 40.7737 43.2671L40.775 43.1531C40.7755 43.1099 40.8106 43.0752 40.8538 43.0752H44.6873C44.7084 43.0752 44.7286 43.0835 44.7434 43.0986C44.7582 43.1135 44.7664 43.1338 44.7661 43.1549L44.7649 43.2689C44.7646 43.312 44.7293 43.3468 44.6861 43.3468Z" fill="#04AB54"/>
<path fill-rule="evenodd" clip-rule="evenodd" d="M42.2305 44.3984C41.294 44.3984 40.3576 44.3984 39.4212 44.3984C39.4203 44.4395 39.4194 44.4803 39.4187 44.5211C40.3568 44.5211 41.2958 44.5211 42.2343 44.5211C42.233 44.4803 42.2312 44.4395 42.2305 44.3984Z" fill="#04AB54"/>
<path d="M42.2499 44.599H39.4343C39.4133 44.599 39.3929 44.5905 39.378 44.5753C39.3632 44.5603 39.3551 44.5399 39.3555 44.5186L39.3579 44.4033C39.3589 44.3604 39.394 44.3186 39.4369 44.3186H42.2463C42.2893 44.3186 42.3243 44.353 42.3251 44.3959C42.3256 44.4221 42.3265 44.4482 42.3274 44.4742L42.3289 44.5178C42.3295 44.539 42.3215 44.5597 42.3067 44.5751C42.2916 44.5904 42.2712 44.599 42.2499 44.599Z" fill="#04AB54"/>
<path fill-rule="evenodd" clip-rule="evenodd" d="M31.9262 46.8905C32.7186 46.8905 33.5116 46.8905 34.304 46.8905C34.3052 46.8506 34.3061 46.8106 34.3073 46.7707C33.5152 46.7707 32.7227 46.7707 31.9303 46.7707C31.9291 46.8106 31.9279 46.8506 31.9262 46.8905Z" fill="#04AB54"/>
<path d="M34.2765 46.9817H31.8986C31.8772 46.9817 31.8566 46.973 31.8418 46.9575C31.8268 46.9418 31.8189 46.921 31.8198 46.8995C31.8215 46.8599 31.8227 46.8202 31.8239 46.7805C31.8253 46.7379 31.8601 46.704 31.9028 46.704H34.2797C34.301 46.704 34.3214 46.7126 34.3364 46.728C34.3512 46.7433 34.3592 46.7639 34.3585 46.7853L34.3553 46.9052C34.3541 46.9478 34.3192 46.9817 34.2765 46.9817Z" fill="#04AB54"/>
<path fill-rule="evenodd" clip-rule="evenodd" d="M42.7987 46.7956C43.5226 46.7956 44.2158 46.7956 44.9791 46.7956C44.5146 46.5087 43.1421 46.5221 42.7987 46.7956Z" fill="#04AB54"/>
<path d="M44.9794 46.9249H42.7991C42.7655 46.9249 42.7357 46.9038 42.7246 46.872C42.7135 46.8404 42.7237 46.8051 42.75 46.7843C42.9604 46.6167 43.4611 46.557 43.8596 46.557C44.3617 46.557 44.7958 46.64 45.0209 46.7789C45.0509 46.7974 45.065 46.8336 45.0554 46.8676C45.0456 46.9015 45.0147 46.9249 44.9794 46.9249ZM43.2398 46.7672H44.4947C44.3093 46.7334 44.0911 46.7147 43.8596 46.7147C43.6314 46.7147 43.4163 46.7339 43.2398 46.7672Z" fill="#04AB54"/>
<path fill-rule="evenodd" clip-rule="evenodd" d="M38.2775 45.5186C37.6753 45.5186 37.0725 45.5186 36.4699 45.5186C36.4682 45.5594 36.4662 45.601 36.4645 45.6417C37.0701 45.6417 37.6756 45.6417 38.2816 45.6417C38.2799 45.601 38.2787 45.5594 38.2775 45.5186Z" fill="#04AB54"/>
<path d="M38.2821 45.7713H36.465C36.4436 45.7713 36.423 45.7626 36.4081 45.7471C36.3932 45.7316 36.3853 45.7108 36.3862 45.6892L36.3915 45.5661C36.3933 45.5239 36.428 45.4904 36.4703 45.4904H38.278C38.3207 45.4904 38.3555 45.5243 38.3568 45.567C38.358 45.6075 38.3592 45.6489 38.3609 45.6894C38.3618 45.7108 38.3539 45.7317 38.339 45.7472C38.3241 45.7626 38.3035 45.7713 38.2821 45.7713Z" fill="#04AB54"/>
<path fill-rule="evenodd" clip-rule="evenodd" d="M44.0772 45.6288C43.2239 45.6288 42.3702 45.6288 41.5156 45.6288C41.5132 45.6696 41.5107 45.7112 41.5078 45.752C42.3664 45.752 43.2246 45.752 44.0831 45.752C44.081 45.7113 44.0794 45.6697 44.0772 45.6288Z" fill="#04AB54"/>
<path d="M44.0873 45.825H41.512C41.4902 45.825 41.4692 45.816 41.4543 45.7998C41.4393 45.7838 41.4317 45.7624 41.4333 45.7405L41.441 45.6181C41.4436 45.5765 41.478 45.5441 41.5197 45.5441H44.0813C44.1232 45.5441 44.1579 45.5768 44.16 45.6187L44.1659 45.7421C44.167 45.7637 44.1592 45.7848 44.1444 45.8004C44.1296 45.816 44.1088 45.825 44.0873 45.825Z" fill="#04AB54"/>
<path fill-rule="evenodd" clip-rule="evenodd" d="M28.5461 46.8277C27.9913 46.8277 27.4369 46.8277 26.8821 46.8277C26.8821 46.8693 26.8821 46.9114 26.8816 46.9529C27.4348 46.9529 27.9879 46.9529 28.5411 46.9529C28.5432 46.9114 28.5445 46.8693 28.5461 46.8277Z" fill="#04AB54"/>
<path d="M28.5527 47.0743H26.8933C26.8723 47.0743 26.852 47.0659 26.8372 47.0509C26.8224 47.0359 26.8142 47.0158 26.8145 46.9946C26.8149 46.9533 26.8149 46.9115 26.8149 46.8702C26.8149 46.8267 26.8501 46.7914 26.8937 46.7914H28.5577C28.5792 46.7914 28.5998 46.8001 28.6146 46.8156C28.6296 46.8311 28.6374 46.852 28.6366 46.8734L28.6351 46.9115C28.634 46.9409 28.6329 46.9703 28.6315 46.9995C28.6294 47.0414 28.5948 47.0743 28.5527 47.0743Z" fill="#04AB54"/>
<path fill-rule="evenodd" clip-rule="evenodd" d="M20.9918 43.169C20.437 43.169 19.8826 43.169 19.3278 43.169C19.3275 43.2111 19.3275 43.2527 19.327 43.2939C19.8804 43.2939 20.4336 43.2939 20.9869 43.2939C20.9885 43.2527 20.9902 43.2111 20.9918 43.169Z" fill="#04AB54"/>
<path d="M20.9976 43.4372H19.3377C19.3166 43.4372 19.2964 43.4288 19.2816 43.4138C19.2668 43.3988 19.2585 43.3786 19.2588 43.3574L19.2596 43.2327C19.2601 43.1894 19.2952 43.1546 19.3386 43.1546H21.0026C21.024 43.1546 21.0445 43.1633 21.0595 43.1788C21.0744 43.1943 21.0823 43.2151 21.0814 43.2366L21.0765 43.3616C21.0747 43.4038 21.0399 43.4372 20.9976 43.4372Z" fill="#04AB54"/>
<path fill-rule="evenodd" clip-rule="evenodd" d="M39.4345 43.0884C38.4589 43.0884 37.4846 43.0884 36.5094 43.0884C36.5085 43.1304 36.5085 43.172 36.5082 43.2133C37.4805 43.2133 38.4531 43.2133 39.4254 43.2133C39.4286 43.172 39.4312 43.1304 39.4345 43.0884Z" fill="#04AB54"/>
<path d="M39.3821 43.2485H36.4649C36.444 43.2485 36.4238 43.2401 36.409 43.2252C36.3941 43.2102 36.3859 43.19 36.3861 43.169L36.3863 43.1351C36.3864 43.1046 36.3866 43.074 36.3873 43.0431C36.3882 43.0002 36.4232 42.9659 36.4661 42.9659H39.3912C39.4132 42.9659 39.4343 42.9751 39.4492 42.9914C39.4642 43.0075 39.4716 43.0292 39.47 43.0511L39.4608 43.1759C39.4575 43.2169 39.4232 43.2485 39.3821 43.2485Z" fill="#04AB54"/>
<path fill-rule="evenodd" clip-rule="evenodd" d="M37.2329 41.5816C38.9731 41.5816 40.7133 41.5816 42.453 41.5816C42.4542 41.5442 42.4551 41.5072 42.4554 41.4701C40.7145 41.4701 38.9731 41.4701 37.2319 41.4701C37.2325 41.5072 37.2325 41.5442 37.2329 41.5816Z" fill="#04AB54"/>
<path d="M42.4307 41.6263H37.2107C37.1674 41.6263 37.1323 41.5915 37.1318 41.5483L37.1309 41.4369C37.1306 41.4159 37.1389 41.3956 37.1537 41.3805C37.1685 41.3655 37.1886 41.3571 37.2098 41.3571H42.4333C42.4544 41.3571 42.4746 41.3655 42.4894 41.3805C42.5042 41.3956 42.5125 41.4157 42.5121 41.4369C42.5117 41.4744 42.5108 41.512 42.5097 41.55C42.5082 41.5925 42.4733 41.6263 42.4307 41.6263Z" fill="#04AB54"/>
<path fill-rule="evenodd" clip-rule="evenodd" d="M21.8717 42.0153C22.5954 42.0153 23.2886 42.0153 24.0522 42.0153C23.5876 41.7289 22.215 41.7422 21.8717 42.0153Z" fill="#04AB54"/>
<path d="M23.997 42.0543H21.8165C21.783 42.0543 21.7531 42.0332 21.7421 42.0015C21.731 41.9697 21.7412 41.9346 21.7675 41.9137C21.9779 41.7464 22.4787 41.6868 22.8772 41.6868C23.3793 41.6868 23.8134 41.7695 24.0385 41.9082C24.0686 41.9268 24.0827 41.963 24.0731 41.997C24.0633 42.0309 24.0324 42.0543 23.997 42.0543ZM22.2587 41.8966H23.5111C23.3259 41.8631 23.1082 41.8445 22.8772 41.8445C22.6496 41.8445 22.4349 41.8634 22.2587 41.8966Z" fill="#04AB54"/>
<path d="M3.83543 53.2252C3.77366 53.2122 3.72627 53.1896 3.69438 53.1577C3.66171 53.125 3.63952 53.0811 3.62659 53.0236C3.61176 52.9578 3.60429 52.8712 3.60429 52.7658V52.5858H6.7372V51.7757H3.60429V51.6064C3.60429 51.5048 3.61176 51.42 3.62659 51.3541C3.63941 51.2971 3.66205 51.2536 3.69594 51.2211C3.73073 51.1877 3.7799 51.1625 3.84189 51.1463C3.91102 51.1282 4.00223 51.119 4.11317 51.119H5.09794V50.2659H4.11317C3.83866 50.2659 3.6054 50.2893 3.41998 50.3355C3.2282 50.3836 3.07155 50.4623 2.95447 50.5697C2.83606 50.6783 2.75132 50.8222 2.70259 50.9976C2.65599 51.1654 2.63235 51.3703 2.63235 51.6065V52.7605C2.63235 53.0005 2.65599 53.2063 2.7027 53.3723C2.75143 53.5458 2.83617 53.6888 2.95458 53.7974C3.07166 53.9049 3.22831 53.9836 3.42009 54.0315C3.60507 54.0778 3.83833 54.1012 4.11328 54.1012H6.75883V53.248H4.11317C4.00078 53.2478 3.90723 53.2402 3.83543 53.2252Z" fill="#04AB54"/>
<path d="M12.56 50.2659H11.2057L9.75945 51.5431L8.38711 50.2659H6.96784L9.05198 52.1191L6.8511 54.1011H8.23079L9.70961 52.7225L11.1938 54.1011H12.618L10.4688 52.1146L12.56 50.2659Z" fill="#04AB54"/>
<path d="M16.8695 50.5525C16.7524 50.449 16.5976 50.3741 16.4094 50.33C16.2277 50.2874 16.0003 50.2659 15.7334 50.2659H12.7105V54.101H13.6879V53.0494H15.7336C16.0073 53.0494 16.2373 53.0318 16.4173 52.9968C16.6055 52.9602 16.7595 52.894 16.8753 52.7998C16.9934 52.7037 17.0774 52.5744 17.1247 52.4162C17.1699 52.2658 17.1928 52.0749 17.1928 51.849V51.5308C17.1928 51.3085 17.169 51.1159 17.1221 50.9583C17.0731 50.7938 16.988 50.6573 16.8695 50.5525ZM13.6879 51.13H15.7119C15.9598 51.13 16.0687 51.1785 16.1163 51.2189C16.182 51.275 16.2153 51.3909 16.2153 51.5634V51.8168C16.2153 51.9825 16.1827 52.0964 16.1208 52.1463C16.0741 52.1837 15.9671 52.2286 15.7226 52.2286H13.6878L13.6879 51.13Z" fill="#04AB54"/>
<path d="M18.7381 53.2252C18.6763 53.2122 18.6289 53.1896 18.5971 53.1577C18.5644 53.125 18.5422 53.0811 18.5293 53.0236C18.5144 52.9578 18.507 52.8712 18.507 52.7658V52.5858H21.6399V51.7757H18.507V51.6064C18.507 51.5048 18.5144 51.42 18.5293 51.3541C18.5421 51.2971 18.5647 51.2536 18.5986 51.2211C18.6334 51.1877 18.6826 51.1625 18.7446 51.1463C18.8137 51.1282 18.9049 51.119 19.0158 51.119H20.0006V50.2659H19.0158C18.7413 50.2659 18.5081 50.2893 18.3227 50.3355C18.1309 50.3836 17.9742 50.4623 17.8571 50.5697C17.7387 50.6783 17.654 50.8222 17.6053 50.9976C17.5587 51.1654 17.535 51.3703 17.535 51.6065V52.7605C17.535 53.0005 17.5587 53.2063 17.6054 53.3723C17.6541 53.5458 17.7388 53.6888 17.8573 53.7974C17.9743 53.9049 18.131 53.9836 18.3228 54.0315C18.5077 54.0778 18.741 54.1012 19.016 54.1012H21.6615V53.248H19.016C18.9033 53.2478 18.8099 53.2402 18.7381 53.2252Z" fill="#04AB54"/>
<path d="M26.1483 50.5697C26.0309 50.4622 25.8733 50.3835 25.6798 50.3355C25.4927 50.2893 25.2569 50.2659 24.9788 50.2659H21.9881V54.101H24.9788C25.2573 54.101 25.4931 54.0776 25.6798 54.0313C25.8733 53.9835 26.031 53.9047 26.1484 53.7971C26.2665 53.6888 26.3511 53.5458 26.4001 53.3721C26.4467 53.206 26.4703 53 26.4703 52.7603V51.6063C26.4703 51.3702 26.4467 51.1654 26.4002 50.9974C26.3512 50.8219 26.2665 50.678 26.1483 50.5697ZM22.9654 51.13H24.9463C25.0615 51.13 25.1567 51.1392 25.2292 51.1573C25.2949 51.1737 25.3477 51.2001 25.3862 51.2356C25.4238 51.2705 25.4498 51.3178 25.4659 51.3805C25.484 51.4518 25.4931 51.5405 25.4931 51.6442V52.7334C25.4931 52.8398 25.4824 52.9282 25.4617 52.9958C25.4424 53.0574 25.4129 53.1062 25.3737 53.1412C25.3338 53.1769 25.2803 53.2026 25.2148 53.2176C25.1418 53.2341 25.0515 53.2426 24.9463 53.2426H22.9654V51.13Z" fill="#04AB54"/>
<path d="M27.8497 50.2659H26.8723V54.101H27.8497V50.2659Z" fill="#04AB54"/>
<path d="M28.1216 51.13H29.6638V54.1011H30.6464V51.13H32.1886V50.2659H28.1216V51.13Z" fill="#04AB54"/>
<path d="M33.4568 50.2659H32.4794V54.101H33.4568V50.2659Z" fill="#04AB54"/>
<path d="M37.8816 50.5697C37.7645 50.4624 37.608 50.3836 37.416 50.3355C37.2305 50.2893 36.9955 50.2659 36.7174 50.2659H35.3209C35.0463 50.2659 34.8131 50.2893 34.6277 50.3355C34.4358 50.3836 34.2792 50.4623 34.1622 50.5697C34.0438 50.6782 33.9591 50.8221 33.9102 50.9976C33.8636 51.1654 33.84 51.3703 33.84 51.6065V52.7605C33.84 53.0005 33.8636 53.2063 33.9103 53.3723C33.9592 53.5459 34.0438 53.6889 34.1621 53.7974C34.2792 53.9049 34.4358 53.9836 34.6277 54.0315C34.8127 54.0778 35.0458 54.1012 35.3209 54.1012H36.7174C36.9959 54.1012 37.2308 54.0778 37.416 54.0315C37.608 53.9836 37.7645 53.9047 37.8815 53.7974C37.9999 53.6889 38.0845 53.5459 38.1334 53.3723C38.1801 53.2063 38.2037 53.0005 38.2037 52.7605V51.6065C38.2037 51.3703 38.1801 51.1654 38.1335 50.9976C38.0845 50.822 37.9999 50.6781 37.8816 50.5697ZM34.812 51.6442C34.812 51.535 34.8196 51.4445 34.8346 51.3748C34.8476 51.3141 34.8715 51.267 34.9075 51.2309C34.9432 51.1953 34.9946 51.1697 35.0602 51.1549C35.135 51.1384 35.2353 51.1299 35.3586 51.1299H36.6851C36.7976 51.1299 36.8924 51.1383 36.9671 51.1549C37.0329 51.1697 37.0843 51.1951 37.12 51.2309C37.1565 51.2675 37.1831 51.317 37.1991 51.3784C37.2172 51.4471 37.2263 51.5365 37.2263 51.6442V52.7281C37.2263 52.8396 37.2171 52.9318 37.199 53.0025C37.1831 53.0649 37.1569 53.114 37.121 53.1486C37.0856 53.1827 37.0346 53.2067 36.9689 53.2197C36.8936 53.2347 36.7982 53.2424 36.6851 53.2424H35.3586C35.2348 53.2424 35.1338 53.2347 35.0587 53.2197C34.993 53.2067 34.9418 53.1827 34.9065 53.1484C34.8711 53.1144 34.8477 53.0678 34.8347 53.0058C34.8196 52.9344 34.812 52.8409 34.812 52.7282V51.6442Z" fill="#04AB54"/>
<path d="M42.1499 50.299V52.8507L39.583 50.376C39.5362 50.3292 39.4767 50.2908 39.4063 50.2619C39.3357 50.2329 39.2476 50.2182 39.1445 50.2182C38.9993 50.2182 38.8781 50.251 38.7842 50.3157C38.6811 50.3869 38.6288 50.4948 38.6288 50.6368V54.1343H39.5467V51.6227L42.0936 54.021C42.1658 54.0892 42.2447 54.1394 42.3283 54.1698C42.4103 54.1999 42.5001 54.2151 42.5954 54.2151C42.7332 54.2151 42.8481 54.1842 42.9368 54.123C43.0346 54.0557 43.0841 53.9457 43.0841 53.7965V50.299H42.1499Z" fill="#04AB54"/>
<path d="M4.15603 47.1012H5.13878V44.1301H6.68093V43.266H2.61388V44.1301H4.15603V47.1012Z" fill="#04AB54"/>
<path d="M7.96555 45.6329H10.5038V47.0995H11.4758V43.2644H10.5038V44.7634H7.96555V43.2644H6.98815V47.0995H7.96555V45.6329Z" fill="#04AB54"/>
<path d="M15.9728 47.0995V46.2463H13.3273C13.2149 46.2463 13.1215 46.2388 13.0495 46.2237C12.9878 46.2108 12.9404 46.1881 12.9085 46.1562C12.8758 46.1236 12.8536 46.0796 12.8407 46.0221C12.8259 45.9563 12.8184 45.8697 12.8184 45.7643V45.5844H15.9513V44.7742H12.8184V44.6049C12.8184 44.5034 12.8259 44.4185 12.8407 44.3526C12.8535 44.2957 12.8762 44.2522 12.9101 44.2196C12.9448 44.1863 12.994 44.1611 13.056 44.1448C13.1251 44.1267 13.2163 44.1176 13.3273 44.1176H14.312V43.2644H13.3273C13.0528 43.2644 12.8195 43.2878 12.6341 43.3341C12.4423 43.3821 12.2857 43.4609 12.1686 43.5682C12.0502 43.6768 11.9654 43.8208 11.9167 43.9962C11.8701 44.164 11.8465 44.3688 11.8465 44.6051V45.7591C11.8465 45.999 11.8701 46.2049 11.9168 46.3709C11.9655 46.5444 12.0503 46.6873 12.1687 46.7959C12.2858 46.9034 12.4424 46.9821 12.6342 47.0301C12.8192 47.0763 13.0524 47.0998 13.3274 47.0998L15.9728 47.0995Z" fill="#04AB54"/>
<path d="M23.0086 58.0878C30.4032 58.0878 37.3326 57.0551 41.6025 55.3562H4.41141C8.67928 57.0556 15.6091 58.0878 23.0086 58.0878Z" fill="#04AB54"/>
</svg>
